<?xml version="1.0" encoding="UTF-8" standalone="no"?>
<!-- Created with Inkscape (http://www.inkscape.org/) -->

<svg
   xmlns:dc="http://purl.org/dc/elements/1.1/"
   xmlns:cc="http://creativecommons.org/ns#"
   xmlns:rdf="http://www.w3.org/1999/02/22-rdf-syntax-ns#"
   xmlns:svg="http://www.w3.org/2000/svg"
   xmlns="http://www.w3.org/2000/svg"
   xmlns:sodipodi="http://sodipodi.sourceforge.net/DTD/sodipodi-0.dtd"
   xmlns:inkscape="http://www.inkscape.org/namespaces/inkscape"
   width="210mm"
   height="297mm"
   viewBox="0 0 210 297"
   version="1.1"
   id="svg8"
   inkscape:version="0.92.2 5c3e80d, 2017-08-06"
   sodipodi:docname="libr15.svg">
  <defs
     id="defs2">
    <clipPath
       id="clipPath875"
       clipPathUnits="userSpaceOnUse">
      <path
         inkscape:connector-curvature="0"
         id="path873"
         d="m 254.262,235.352 h 1560.35 v 1147.58 H 254.262 Z" />
    </clipPath>
    <clipPath
       id="clipPath961"
       clipPathUnits="userSpaceOnUse">
      <path
         inkscape:connector-curvature="0"
         id="path959"
         d="m 185.551,1713.79 h 1692.38 V 2770.12 H 185.551 Z" />
    </clipPath>
    <clipPath
       id="clipPath973"
       clipPathUnits="userSpaceOnUse">
      <path
         inkscape:connector-curvature="0"
         id="path971"
         d="m 254.801,1713.67 h 1560.35 V 2861.29 H 254.801 Z" />
    </clipPath>
    <clipPath
       id="clipPath1055"
       clipPathUnits="userSpaceOnUse">
      <path
         inkscape:connector-curvature="0"
         id="path1053"
         d="M 2250,239 V 1385 H 3807 V 239 Z" />
    </clipPath>
    <clipPath
       id="clipPath1123"
       clipPathUnits="userSpaceOnUse">
      <path
         inkscape:connector-curvature="0"
         id="path1121"
         d="M 2250.9,239.93 H 3806.92 V 1384.34 H 2250.9 Z" />
    </clipPath>
    <clipPath
       id="clipPath1177"
       clipPathUnits="userSpaceOnUse">
      <path
         inkscape:connector-curvature="0"
         id="path1175"
         d="m 2238.16,1713.63 h 1554.61 v 1143.4 H 2238.16 Z" />
    </clipPath>
    <clipPath
       id="clipPath1221"
       clipPathUnits="userSpaceOnUse">
      <path
         inkscape:connector-curvature="0"
         id="path1219"
         d="M 375,1715 V 3030 H 1696 V 1715 Z" />
    </clipPath>
  </defs>
  <sodipodi:namedview
     id="base"
     pagecolor="#ffffff"
     bordercolor="#666666"
     borderopacity="1.0"
     inkscape:pageopacity="0.0"
     inkscape:pageshadow="2"
     inkscape:zoom="2.8207691"
     inkscape:cx="336.95669"
     inkscape:cy="914.11035"
     inkscape:document-units="mm"
     inkscape:current-layer="g839"
     showgrid="false"
     inkscape:window-width="2560"
     inkscape:window-height="1395"
     inkscape:window-x="0"
     inkscape:window-y="1"
     inkscape:window-maximized="1"
     showguides="false" />
  <metadata
     id="metadata5">
    <rdf:RDF>
      <cc:Work
         rdf:about="">
        <dc:format>image/svg+xml</dc:format>
        <dc:type
           rdf:resource="http://purl.org/dc/dcmitype/StillImage" />
        <dc:title></dc:title>
      </cc:Work>
    </rdf:RDF>
  </metadata>
  <g
     inkscape:label="Layer 1"
     inkscape:groupmode="layer"
     id="layer1">
    <g
       transform="matrix(0.35277777,0,0,-0.35277777,0,297.0389)"
       inkscape:label="ink_ext_XXXXXX"
       id="g823">
      <g
         transform="scale(0.1)"
         id="g825" />
    </g>
    <g
       inkscape:groupmode="layer"
       id="layer3"
       inkscape:label="Layer 3" />
    <g
       id="g839"
       transform="matrix(0.03527778,0,0,-0.03527778,6.7710974,121.04519)">
      <path
         d="M 1214.801,2861.29 H 2774.49"
         style="fill:none;stroke:#000000;stroke-width:4.69777012;stroke-linecap:round;stroke-linejoin:round;stroke-miterlimit:4;stroke-dasharray:none;stroke-opacity:1"
         id="path927"
         inkscape:connector-curvature="0" />
      <g
         id="g931"
         transform="matrix(10,0,0,10,959.99995,0)">
        <text
           transform="matrix(1,0,0,-1,20.7164,162.241)"
           style="font-variant:normal;font-weight:normal;font-size:8.04808998px;font-family:'Times New Roman';-inkscape-font-specification:TimesNewRomanPSMT;writing-mode:lr-tb;fill:#000000;fill-opacity:1;fill-rule:nonzero;stroke:none"
           id="text947">
          <tspan
             x="0 2.6800139 6.7040591 25.971025 28.651039 32.675083 52.014725 54.69474 58.718784 80.939644 105.16423 109.18828 131.20213 135.22618 157.17325 161.19728"
             y="0"
             sodipodi:role="line"
             id="tspan933">-90-60-300306090</tspan>
          <tspan
             x="-7.9191399 -3.8950951 -1.8830725"
             y="-7.2480502"
             sodipodi:role="line"
             id="tspan935">0.0</tspan>
          <tspan
             x="-7.9191399 -3.8950951 -1.8830725"
             y="-30.20005"
             sodipodi:role="line"
             id="tspan937">0.2</tspan>
          <tspan
             x="-7.9191399 -3.8950951 -1.8830725"
             y="-53.15205"
             sodipodi:role="line"
             id="tspan939">0.4</tspan>
          <tspan
             x="-7.9191399 -3.8950951 -1.8830725"
             y="-76.037247"
             sodipodi:role="line"
             id="tspan941">0.6</tspan>
          <tspan
             x="-7.9191399 -3.8950951 -1.8830725"
             y="-98.98925"
             sodipodi:role="line"
             id="tspan943">0.8</tspan>
          <tspan
             x="-7.9191399 -3.8950951 -1.8830725"
             y="-121.94125"
             sodipodi:role="line"
             id="tspan945">1.0</tspan>
        </text>
      </g>
      <path
         d="m 1214.801,1691.52 v 22.85 M 1345,1702.93 v 11.44 m 129.531,-22.85 v 22.85 m 130.199,-11.44 v 11.44 m 130.192,-22.85 v 22.85 m 129.527,-11.44 v 11.44 m 130.201,-22.85 v 22.85 m 130.19,-11.44 v 11.44 m 129.54,-22.85 v 22.85 m 130.19,-11.44 v 11.44 m 130.2,-22.85 v 22.85 m 129.53,-11.44 v 11.44 m 130.19,-22.85 v 22.85 m -1559.689,0 H 2774.49"
         style="fill:none;stroke:#000000;stroke-width:4.69777012;stroke-linecap:round;stroke-linejoin:round;stroke-miterlimit:4;stroke-dasharray:none;stroke-opacity:1"
         id="path949"
         inkscape:connector-curvature="0" />
      <path
         d="m 1191.988,1714.37 h 22.813 m -11.403,114.73 h 11.403 m -22.813,114.77 h 22.813 m -11.403,114.76 h 11.403 m -22.813,114.77 h 22.813 m -11.403,114.1 h 11.403 m -22.813,114.73 h 22.813 m -11.403,114.76 h 11.403 m -22.813,114.77 h 22.813 m -11.403,114.76 h 11.403 m -22.813,114.77 h 22.813 m 0,-1146.92 v 1146.92"
         style="fill:none;stroke:#000000;stroke-width:4.69777012;stroke-linecap:round;stroke-linejoin:round;stroke-miterlimit:4;stroke-dasharray:none;stroke-opacity:1"
         id="path951"
         inkscape:connector-curvature="0" />
      <path
         d="m 2774.49,1714.37 v 0 m 0,114.73 v 0 m 0,114.77 v 0 m 0,114.76 v 0 m 0,114.77 v 0 m 0,114.1 v 0 m 0,114.73 v 0 m 0,114.76 v 0 m 0,114.77 v 0 m 0,114.76 v 0 m 0,114.77 v 0 m 0,-1146.92 v 1146.92"
         style="fill:none;stroke:#000000;stroke-width:4.69777012;stroke-linecap:round;stroke-linejoin:round;stroke-miterlimit:4;stroke-dasharray:none;stroke-opacity:1"
         id="path953"
         inkscape:connector-curvature="0" />
      <g
         id="g955"
         transform="translate(967.57609)"
         style="stroke-width:5.66929102;stroke-miterlimit:4;stroke-dasharray:none">
        <g
           id="g957"
           clip-path="url(#clipPath961)"
           style="stroke-width:5.66929102;stroke-miterlimit:4;stroke-dasharray:none">
          <g
             id="g963"
             transform="scale(1.08185,-0.918149)"
             style="stroke-width:5.68838072;stroke-miterlimit:4;stroke-dasharray:none">
            <path
               d="m 587.318,-1868.57 l 10.114,-3.36 h 0.682 l 1.34,-0.69 h 1.332 m 15.49,-5.36 l 1.332,-0.67 l 2.026,-0.68 h 1.339 l 2.015,-1.37 h 1.34 l 2.025,-1.31 h 1.329 l 2.026,-1.37 m 15.493,-4.72 l 2.022,-1.32 h 1.333 l 2.025,-1.36 h 1.329 l 2.026,-1.32 h 1.339 l 1.369,-0.67 l 2.025,-1.37 m 15.454,-7.41 h 1.329 l 1.379,-1.31 l 2.672,-1.36 l 1.368,-1.37 l 1.34,-0.67 l 1.329,-1.32 l 2.025,-1.36 l 1.34,-0.69 l 0.686,-0.63 m 14.797,-13.49 l 1.343,-1.32 l 1.329,-1.36 l 1.379,-1.36 l 1.329,-2.01 l 1.339,-1.35 l 1.332,-1.33 l 1.38,-1.35 l 1.329,-1.36 l 0.693,-1.32 l 0.646,-0.69 m 12.786,-15.48 l 1.368,-1.32 l 1.34,-1.36 l 1.332,-2 l 1.34,-1.37 l 1.368,-2.04 l 1.34,-1.31 l 1.328,-2.05 l 1.344,-1.31 l 0.682,-0.68 m 12.099,-15.49 l 0.686,-1.32 l 1.329,-1.36 l 1.38,-2 l 1.328,-1.36 l 1.343,-2.04 l 1.329,-2.01 l 1.379,-1.36 l 1.329,-1.99 m 12.1,-15.5 v -0.67 l 1.368,-2.01 l 1.34,-1.35 l 1.332,-2 l 1.34,-2.05 l 1.368,-2 l 1.34,-1.36 l 1.332,-2 m 9.428,-15.49 l 1.339,-1.99 l 1.369,-2.05 l 1.332,-1.31 l 1.34,-2.04 l 1.339,-2.01 l 0.686,-2.04 l 1.329,-2 m 10.113,-15.48 v -0.68 l 1.34,-2 l 1.332,-2.04 l 1.376,-2.01 l 0.646,-1.99 l 1.369,-2.05 l 1.339,-2.68 m 9.421,-15.48 l 0.657,-1.37 l 1.368,-1.99 l 0.647,-2 l 1.375,-2.05 l 1.333,-1.99 l 1.339,-2.73 l 0.686,-1.32 m 8.049,-15.48 l 1.379,-2 l 0.646,-2.04 l 1.369,-2.68 l 1.339,-2.01 l 0.647,-2.04 l 1.379,-2 v -0.68 m 8.052,-15.48 v -0.69 l 1.365,-1.99 l 0.657,-2.05 l 1.332,-2 l 1.376,-2.04 l 0.646,-1.99 l 1.369,-1.37 l 1.343,-1.31 m 10.756,-15.5 l 1.332,-1.99 l 2.026,-1.36 l 1.376,-2.01 l 1.332,-1.36 l 2.022,-1.35 l 1.332,-2.01 l 2.026,-1.36 m 15.454,-11.44 l 1.368,-0.64 l 2.026,-1.36 l 2.022,-0.68 l 1.989,-1.36 l 2.022,-0.64 l 2.015,-1.37 l 2.026,-0.67 m 15.49,-4.05 l 0.65,-0.64 h 1.375 l 2.015,-0.68 h 9.392 m 15.493,2 l 0.683,0.68 h 1.332 l 2.022,1.36 l 2.025,0.64 h 1.34 l 2.015,1.36 l 2.025,0.69 h 1.34 l 0.686,0.68 m 15.454,9.4 l 1.368,1.36 l 1.34,1.32 l 1.332,0.68 l 2.022,1.36 l 1.333,1.32 l 1.339,1.37 l 1.367,1.35 l 1.34,1.33 l 1.33,1.35 l 0.7,0.69 m 12.77,15.43 l 0.69,0.69 l 1.33,1.36 l 0.69,1.37 l 1.34,1.99 l 1.34,1.36 l 0.68,1.32 l 1.33,1.36 l 1.35,2.01 l 0.68,1.35 l 0.65,0.68 m 10.11,15.44 l 0.68,0.69 l 1.34,2.04 l 0.69,1.32 l 1.34,2.04 v 1.32 l 1.33,2.04 l 0.68,1.36 l 1.34,1.32 l 0.69,1.36 m 9.39,15.5 l 0.68,1.31 l 0.69,1.37 l 1.34,1.99 l 0.68,2.04 l 1.33,2 l 0.69,2.04 l 1.34,2.01 l 0.64,0.68 m 8.78,15.49 l 0.65,1.31 l 0.68,2.04 l 1.35,2.01 l 1.36,1.99 l 1.34,2.72 l 0.65,2.01 l 1.37,1.36 m 8.06,15.48 l 0.68,1.32 l 1.33,2.04 l 1.34,2.68 l 0.69,2 l 1.34,2.04 l 1.37,2.01 l 0.64,1.36 m 9.43,15.48 v 0.64 l 1.33,2.04 l 0.7,2.01 l 1.33,2.03 l 1.37,2 l 0.65,2.05 l 1.33,2 l 0.7,0.68 m 10.1,15.48 l 2.67,4 l 1.34,1.36 l 1.37,2.05 l 0.66,1.99 l 1.36,1.37 l 1.34,2 l 0.69,0.68 m 12.78,15.48 h 0.65 l 1.34,2 l 1.37,1.37 l 1.34,1.31 l 1.33,2.05 l 1.37,1.31 l 1.98,1.37 l 1.38,1.35 l 1.33,1.33 m 14.81,13.48 l 0.68,0.64 l 1.99,1.37 l 1.37,1.35 l 2.02,1.32 l 1.34,1.36 l 2.02,1.37 l 1.34,0.63 l 2.02,1.36 l 0.69,0.69 m 15.45,10.08 l 0.69,0.68 l 2.02,1.31 l 2.02,0.69 l 1.34,0.68 l 2.02,1.36 l 2.02,1.32 l 1.34,0.68 l 2.02,1.36 m 15.46,7.4 h 0.68 l 2.02,1.32 l 2.02,0.69 l 1.34,0.67 l 2.02,1.37 l 2.02,0.64 l 2.02,0.67 l 1.34,0.69 m 15.49,6.72 l 1.34,0.68 l 4.04,1.36 h 1.34 l 2.02,1.32 l 2.02,1.36 l 2.02,0.69 h 0.65 m 15.49,6.03 l 2.02,1.37 l 2.03,0.68 h 1.33 l 2.02,1.31 h 1.34 l 2.02,1.37 h 1.34 l 1.37,0.68 m 15.45,6.72 h 0.69 l 1.34,0.68 l 1.33,0.64 h 0.69 l 1.33,0.67 l 0.69,0.69 l 7.4,2.68"
               style="fill:none;stroke:#ff0000;stroke-width:5.68838072;stroke-linecap:round;stroke-linejoin:round;stroke-miterlimit:4;stroke-dasharray:none;stroke-opacity:1"
               id="path965"
               inkscape:connector-curvature="0" />
          </g>
        </g>
      </g>
      <g
         clip-path="url(#clipPath973)"
         id="g969"
         transform="translate(965.68206)"
         style="stroke-width:5.66929102;stroke-miterlimit:4;stroke-dasharray:none">
        <path
           inkscape:connector-curvature="0"
           id="path975"
           style="fill:none;stroke:#0000ff;stroke-width:5.66929102;stroke-linecap:round;stroke-linejoin:round;stroke-miterlimit:4;stroke-dasharray:none;stroke-opacity:1"
           d="m 558.16,1714.37 l 3.36,0.67 m 14.07,4.02 h 1.359 l 1.332,0.67 h 0.668 m 14.102,4.02 h 0.66 l 1.367,0.66 h 1.332 m 14.102,4.73 h 0.66 l 0.668,0.66 h 1.359 l 0.672,0.67 m 14.098,3.36 l 0.66,0.66 h 1.332 l 1.328,0.67 m 14.102,3.36 h 3.359 m 14.102,2.69 l 1.328,0.66 l 2.031,0.67 m 14.098,2.69 l 1.992,0.67 h 1.371 m 14.058,3.36 l 0.711,0.66 l 1.989,0.67 h 0.66 m 14.109,4.72 l 0.66,0.67 l 2.032,0.66 h 0.66 m 14.109,6.72 l 2.649,1.33 l 0.711,0.66 m 14.062,8.05 l 2.027,1.37 l 1.332,1.32 m 14.098,10.75 h 0.66 l 1.371,1.32 l 1.328,1.37 m 14.102,13.4 l 1.332,2.03 l 0.656,1.33 m 12.114,14.1 l 1.328,1.33 l 1.332,1.37 l 0.66,0.66 m 10.078,14.1 l 1.371,1.99 l 0.66,1.37 m 10.039,14.06 l 0.7,0.71 l 0.671,1.32 l 1.329,1.33 m 10.07,14.1 l 0.672,1.33 l 0.66,1.37 l 0.668,0.66 m 10.742,14.11 l 1.367,1.32 l 1.321,1.37 l 0.671,0.66 m 12.071,14.11 l 0.699,0.66 l 0.668,1.33 l 1.32,1.33 m 14.102,13.43 l 1.328,1.33 l 1.371,0.71 l 0.66,0.66 m 14.11,10.04 h 0.66 l 1.332,0.7 l 1.367,0.67 m 14.062,6.71 l 1.36,0.67 h 1.328 l 0.672,0.66 m 14.097,4.03 h 3.364 m 14.097,2.69 h 3.36 m 14.062,1.99 l 2.028,0.67 h 1.332 m 14.097,1.36 h 3.364 m 14.098,0.67 l 1.33,0.66 h 2.03 m 14.07,0 h 3.35 m 14.11,-0.66 h 3.36 m 14.1,-1.33 l 1.99,-0.7 h 1.37 m 14.1,-1.99 l 0.66,-0.67 l 2.66,-0.66 m 14.1,-3.36 l 1.37,-0.67 h 1.99 m 14.1,-4.72 l 0.66,-0.67 l 2.04,-0.66 l 0.66,-0.67 m 14.1,-6.71 l 1.99,-0.67 l 1.37,-1.37 m 14.06,-8.71 l 0.71,-0.66 l 1.99,-1.37 l 0.66,-0.66 m 14.1,-11.41 l 1.33,-1.33 l 2.03,-1.32 m 14.11,-11.45 l 1.32,-1.33 l 2.03,-1.33 m 14.07,-12.1 h 0.7 l 2.66,-2.66 m 14.1,-11.41 l 2.03,-1.36 l 1.33,-1.33 m 13.44,-11.41 l 1.32,-0.66 l 2.03,-1.37 m 14.07,-12.07 l 2.03,-1.99 l 1.33,-1.37 m 14.1,-12.07 h 0.66 l 1.37,-1.33 l 1.33,-1.37 m 14.1,-11.4 l 1.33,-1.33 l 1.33,-1.37 l 0.7,-0.66 m 14.06,-12.07 l 0.7,-0.67 l 2,-1.36 h 0.66 m 14.1,-11.41 l 2.03,-1.33 l 1.33,-0.66 m 14.1,-9.42 l 1.99,-1.32 l 1.37,-0.67 m 14.06,-7.38 l 2.04,-0.66 l 1.32,-0.71 m 14.11,-6.01 l 2.03,-0.67 h 1.32 m 14.11,-4.02 l 1.32,-0.7 l 2.04,-0.67 m 14.1,-2.69 l 1.33,-0.67 l 1.99,-0.66 m 14.1,-2.7 l 2.03,-0.66 h 1.33 m 14.1,-2.7 l 1.33,-0.66 h 1.37 l 0.66,-0.66 m 14.1,-4.69 h 1.33 l 1.33,-0.67 h 0.66 m 14.1,-5.39 h 1.37 l 1.33,-0.66 h 0.66 m 14.1,-4.69 h 2.7 l 0.66,-0.66 m 14.1,-3.36 l 0.67,-0.67" />
        <g
           transform="matrix(10,0,0,10,9.3749994,0)"
           id="g977"
           style="stroke-width:0.5669291;stroke-miterlimit:4;stroke-dasharray:none">
          <text
             id="text983"
             style="font-variant:normal;font-weight:normal;font-size:7.44512987px;font-family:'Times New Roman';-inkscape-font-specification:TimesNewRomanPSMT;writing-mode:lr-tb;fill:#ff0000;fill-opacity:1;fill-rule:nonzero;stroke:none;stroke-width:0.5669291;stroke-miterlimit:4;stroke-dasharray:none"
             transform="scale(1,-1)"
             x="124.38785"
             y="-187.85527">
            <tspan
               id="tspan979"
               sodipodi:role="line"
               x="124.38785"
               y="-181.26808" />
            <tspan
               id="tspan981"
               sodipodi:role="line"
               y="-196.11737"
               x="114.54759 118.27016 121.99273 125.71536 129.43794 131.29922">1500 K</tspan>
          </text>
          <text
             transform="scale(1,-1)"
             style="font-variant:normal;font-weight:normal;font-size:7.44512987px;font-family:'Times New Roman';-inkscape-font-specification:TimesNewRomanPSMT;writing-mode:lr-tb;fill:#0000ff;fill-opacity:1;fill-rule:nonzero;stroke:none;stroke-width:0.5669291;stroke-miterlimit:4;stroke-dasharray:none"
             id="text1624"
             x="126.24484"
             y="-182.6637">
            <tspan
               sodipodi:role="line"
               id="tspan1622"
               x="126.24484"
               y="-182.6637">1700 K</tspan>
          </text>
          <text
             xml:space="preserve"
             style="font-style:normal;font-variant:normal;font-weight:normal;font-stretch:normal;font-size:11.99999905px;line-height:125%;font-family:'Times New Roman';-inkscape-font-specification:'Times New Roman, ';text-align:start;letter-spacing:0px;word-spacing:0px;writing-mode:lr-tb;text-anchor:start;fill:#000000;fill-opacity:1;stroke:none;stroke-width:0.5669291;stroke-linecap:butt;stroke-linejoin:miter;stroke-miterlimit:4;stroke-dasharray:none;stroke-opacity:1"
             x="-95.417534"
             y="-273.84808"
             id="text1021"
             transform="scale(1,-1)"><tspan
               sodipodi:role="line"
               id="tspan1019"
               x="-95.417534"
               y="-263.19662"
               style="stroke-width:0.5669291;stroke-miterlimit:4;stroke-dasharray:none" /></text>
          <text
             xml:space="preserve"
             style="font-style:normal;font-variant:normal;font-weight:normal;font-stretch:normal;font-size:11.99999905px;line-height:125%;font-family:'Times New Roman';-inkscape-font-specification:'Times New Roman, ';text-align:start;letter-spacing:0px;word-spacing:0px;writing-mode:lr-tb;text-anchor:start;fill:#000000;fill-opacity:1;stroke:none;stroke-width:0.5669291;stroke-linecap:butt;stroke-linejoin:miter;stroke-miterlimit:4;stroke-dasharray:none;stroke-opacity:1"
             x="123.01386"
             y="-326.94568"
             id="text1025"
             transform="scale(1,-1)"><tspan
               sodipodi:role="line"
               id="tspan1023"
               x="123.01386"
               y="-316.29422"
               style="stroke-width:0.5669291;stroke-miterlimit:4;stroke-dasharray:none" /></text>
          <text
             xml:space="preserve"
             style="font-style:normal;font-variant:normal;font-weight:normal;font-stretch:normal;font-size:11.99999905px;line-height:125%;font-family:'Times New Roman';-inkscape-font-specification:'Times New Roman, ';text-align:start;letter-spacing:0px;word-spacing:0px;writing-mode:lr-tb;text-anchor:start;fill:#000000;fill-opacity:1;stroke:none;stroke-width:0.5669291;stroke-linecap:butt;stroke-linejoin:miter;stroke-miterlimit:4;stroke-dasharray:none;stroke-opacity:1"
             x="33.987965"
             y="-315.81744"
             id="text1030"
             transform="scale(1,-1)"><tspan
               sodipodi:role="line"
               id="tspan1028"
               x="33.987965"
               y="-315.81744"
               style="stroke-width:0.5669291;stroke-miterlimit:4;stroke-dasharray:none">𝜓</tspan></text>
          <text
             xml:space="preserve"
             style="font-style:normal;font-variant:normal;font-weight:normal;font-stretch:normal;font-size:11.99999905px;line-height:125%;font-family:'Times New Roman';-inkscape-font-specification:'Times New Roman, ';text-align:start;letter-spacing:0px;word-spacing:0px;writing-mode:lr-tb;text-anchor:start;fill:#000000;fill-opacity:1;stroke:none;stroke-width:0.5669291;stroke-linecap:butt;stroke-linejoin:miter;stroke-miterlimit:4;stroke-dasharray:none;stroke-opacity:1"
             x="10.141742"
             y="-314.86359"
             id="text1034"
             transform="scale(1,-1)"><tspan
               sodipodi:role="line"
               id="tspan1032"
               x="10.141742"
               y="-314.86359"
               style="stroke-width:0.5669291;stroke-miterlimit:4;stroke-dasharray:none">dfg</tspan></text>
          <text
             xml:space="preserve"
             style="font-style:normal;font-variant:normal;font-weight:normal;font-stretch:normal;font-size:11.99999905px;line-height:125%;font-family:'Times New Roman';-inkscape-font-specification:'Times New Roman, ';text-align:start;letter-spacing:0px;word-spacing:0px;writing-mode:lr-tb;text-anchor:start;fill:#000000;fill-opacity:1;stroke:none;stroke-width:0.5669291;stroke-linecap:butt;stroke-linejoin:miter;stroke-miterlimit:4;stroke-dasharray:none;stroke-opacity:1"
             x="30.490517"
             y="-322.81235"
             id="text1042"
             transform="scale(1,-1)"><tspan
               sodipodi:role="line"
               id="tspan1040"
               x="30.490517"
               y="-322.81235"
               style="fill:#000000;stroke:#000000;stroke-width:0.5669291;stroke-miterlimit:4;stroke-dasharray:none">1</tspan></text>
          <text
             xml:space="preserve"
             style="font-style:normal;font-variant:normal;font-weight:normal;font-stretch:normal;font-size:11.99999905px;line-height:125%;font-family:'Times New Roman';-inkscape-font-specification:'Times New Roman, ';text-align:start;letter-spacing:0px;word-spacing:0px;writing-mode:lr-tb;text-anchor:start;fill:#000000;fill-opacity:1;stroke:none;stroke-width:0.5669291;stroke-linecap:butt;stroke-linejoin:miter;stroke-miterlimit:4;stroke-dasharray:none;stroke-opacity:1"
             x="37.485409"
             y="-353.01755"
             id="text1046"
             transform="scale(1,-1)"><tspan
               sodipodi:role="line"
               id="tspan1044"
               x="37.485409"
               y="-342.36609"
               style="stroke-width:0.5669291;stroke-miterlimit:4;stroke-dasharray:none" /></text>
        </g>
      </g>
      <text
         id="text993"
         style="font-variant:normal;font-weight:normal;font-size:1px;font-family:Arial;-inkscape-font-specification:Arial;writing-mode:lr-tb;fill:#000000;fill-opacity:1;fill-rule:nonzero;stroke:none;stroke-width:10"
         x="63"
         y="2499">
        <tspan
           id="tspan991"
           y="2499"
           x="63"
           style="stroke-width:10" />
      </text>
      <text
         id="text1001"
         style="font-variant:normal;font-weight:normal;font-size:74.45130157px;font-family:'Times New Roman';-inkscape-font-specification:TimesNewRomanPSMT;writing-mode:lr-tb;fill:#000000;fill-opacity:1;fill-rule:nonzero;stroke:none;stroke-width:10"
         transform="scale(1,-1)"
         x="2058.3669"
         y="-2652.5701">
        <tspan
           id="tspan999"
           sodipodi:role="line"
           y="-2652.5701"
           x="2058.3669 2095.5925 2132.8184 2170.0439 2188.6567"
           style="stroke-width:10">300 K</tspan>
      </text>
      <path
         d="m 1879.449,1714.37 l 20.121,48.33 l 20.2,138.24 l 13.242,193.2 l 13.547,265.82 l 14.421,172.15 c 6.09,48.94 13.32,149.76 34.57,183.55 c 21.44,-18 44.96,-155.66 46.21,-214.49 l 8.71,-151.44 l 18.91,-232.89 l 12.73,-235.39 l 26.87,-168.44"
         style="fill:none;stroke:#000000;stroke-width:5.66929102;stroke-linecap:butt;stroke-linejoin:miter;stroke-miterlimit:4;stroke-dasharray:none;stroke-opacity:1"
         id="path1003"
         inkscape:connector-curvature="0" />
      <text
         id="text1013"
         style="font-variant:normal;font-weight:normal;font-size:1px;font-family:Arial;-inkscape-font-specification:Arial;writing-mode:lr-tb;fill:#000000;fill-opacity:1;fill-rule:nonzero;stroke:none;stroke-width:10"
         x="2036"
         y="2498">
        <tspan
           id="tspan1011"
           y="2498"
           x="2036"
           style="stroke-width:10" />
      </text>
      <text
         id="text1019"
         style="font-variant:normal;font-weight:normal;font-size:109.99999237px;font-family:'Times New Roman';-inkscape-font-specification:TimesNewRomanPSMT;writing-mode:lr-tb;fill:#000000;fill-opacity:1;fill-rule:nonzero;stroke:none;stroke-width:10"
         transform="scale(1,-1)"
         x="3779.6399"
         y="-2942.8899">
        <tspan
           id="tspan1015"
           sodipodi:role="line"
           y="-2942.8899"
           x="3779.6399 3859.6799 3912.96 3946.3201 3999.6001 4032.96 4066.3201"
           style="stroke-width:10">Calcite</tspan>
        <tspan
           id="tspan1017"
           sodipodi:role="line"
           y="-2944.9954"
           x="1785.76 1872.4 1912.36 1965.64 2025.64 2085.6399 2145.6399 2179 2212.3599"
           style="stroke-width:10">Aragonite</tspan>
      </text>
      <path
         d="M 3027.42,2857.03 H 4587.11"
         style="fill:none;stroke:#000000;stroke-width:4.69777012;stroke-linecap:round;stroke-linejoin:round;stroke-miterlimit:4;stroke-dasharray:none;stroke-opacity:1"
         id="path1021"
         inkscape:connector-curvature="0" />
      <text
         id="text1163"
         style="font-variant:normal;font-weight:normal;font-size:80.18569946px;font-family:'Times New Roman';-inkscape-font-specification:TimesNewRomanPSMT;writing-mode:lr-tb;fill:#000000;fill-opacity:1;fill-rule:nonzero;stroke:none;stroke-width:10"
         transform="scale(1,-1)"
         x="2985.6799"
         y="-1622.71">
        <tspan
           id="tspan1149"
           sodipodi:role="line"
           y="-1622.71"
           x="2985.6799 3012.3818 3052.4746 3244.4409 3271.1428 3311.2356 3503.9209 3530.6228 3570.7156 3792.1077 4033.4673 4073.5601 4292.8848 4332.978 4551.6426 4591.7354"
           style="stroke-width:10">-90-60-300306090</tspan>
        <tspan
           id="tspan1151"
           sodipodi:role="line"
           y="-1694.9248"
           x="2906.7776 2946.8706 2966.917"
           style="stroke-width:10">0.0</tspan>
        <tspan
           id="tspan1153"
           sodipodi:role="line"
           y="-1923.6008"
           x="2906.7776 2946.8706 2966.917"
           style="stroke-width:10">0.2</tspan>
        <tspan
           id="tspan1155"
           sodipodi:role="line"
           y="-2152.2808"
           x="2906.7776 2946.8706 2966.917"
           style="stroke-width:10">0.4</tspan>
        <tspan
           id="tspan1157"
           sodipodi:role="line"
           y="-2380.2888"
           x="2906.7776 2946.8706 2966.917"
           style="stroke-width:10">0.6</tspan>
        <tspan
           id="tspan1159"
           sodipodi:role="line"
           y="-2608.9688"
           x="2906.7776 2946.8706 2966.917"
           style="stroke-width:10">0.8</tspan>
        <tspan
           id="tspan1161"
           sodipodi:role="line"
           y="-2837.6448"
           x="2906.7776 2946.8706 2966.917"
           style="stroke-width:10">1.0</tspan>
      </text>
      <path
         d="m 3033.16,1691.56 v 22.74 m 129.73,-11.37 v 11.37 m 129.02,-22.74 v 22.74 m 129.73,-11.37 v 11.37 m 129.73,-22.74 v 22.74 m 129.02,-11.37 v 11.37 m 129.73,-22.74 v 22.74 m 129.72,-11.37 v 11.37 m 129.07,-22.74 v 22.74 m 129.68,-11.37 v 11.37 m 129.73,-22.74 v 22.74 m 129.06,-11.37 v 11.37 m 129.73,-22.74 v 22.74 m -1553.95,0 h 1553.95"
         style="fill:none;stroke:#000000;stroke-width:4.6805501;stroke-linecap:round;stroke-linejoin:round;stroke-miterlimit:4;stroke-dasharray:none;stroke-opacity:1"
         id="path1165"
         inkscape:connector-curvature="0" />
      <path
         d="m 3010.43,1714.3 h 22.73 m -11.36,114.37 h 11.36 m -22.73,114.34 h 22.73 m -11.36,114.33 h 11.36 m -22.73,114.34 h 22.73 m -11.36,113.67 h 11.36 m -22.73,114.34 h 22.73 m -11.36,114.33 h 11.36 m -22.73,114.34 h 22.73 m -11.36,114.34 h 11.36 m -22.73,114.33 h 22.73 m 0,-1142.73 v 1142.73"
         style="fill:none;stroke:#000000;stroke-width:4.6805501;stroke-linecap:round;stroke-linejoin:round;stroke-miterlimit:4;stroke-dasharray:none;stroke-opacity:1"
         id="path1167"
         inkscape:connector-curvature="0" />
      <path
         d="m 4587.11,1714.3 v 0 m 0,114.37 v 0 m 0,114.34 v 0 m 0,114.33 v 0 m 0,114.34 v 0 m 0,113.67 v 0 m 0,114.34 v 0 m 0,114.33 v 0 m 0,114.34 v 0 m 0,114.34 v 0 m 0,114.33 v 0 m 0,-1142.73 v 1142.73"
         style="fill:none;stroke:#000000;stroke-width:4.6805501;stroke-linecap:round;stroke-linejoin:round;stroke-miterlimit:4;stroke-dasharray:none;stroke-opacity:1"
         id="path1169"
         inkscape:connector-curvature="0" />
      <path
         d="m 3518.59,1714.3 h 108.32 l 2.66,0.7 h 7.38 l 2.66,0.66 h 4.69 l 1.99,0.67 h 2.03 l 2.66,0.66 l 2.03,0.67 h 1.99 l 2.66,0.66 l 2.03,0.66 l 1.99,0.67 l 1.99,0.7 l 2.03,0.67 l 2,0.66 l 2.03,0.66 l 1.32,0.67 l 2,1.33 l 1.99,0.66 l 2.03,1.37 l 1.33,1.33 l 1.99,0.66 l 1.37,1.33 l 1.33,1.33 l 1.99,1.36 l 1.33,1.33 l 1.36,1.33 l 1.33,1.99 l 1.99,1.37 l 1.37,1.33 l 1.33,1.99 l 1.33,1.37 l 1.33,1.99 l 0.66,1.99 l 1.37,2.03 l 1.32,1.99 l 1.33,1.33 l 0.67,2.03 l 1.33,2.66 l 1.36,1.99 l 0.67,2.03 l 1.32,1.99 l 0.67,2.7 l 1.33,1.99 l 0.66,2.66 l 0.7,2.03 l 1.33,2.66 l 0.67,2.69 l 0.66,2.66 l 0.66,1.99 l 1.33,2.7 l 0.67,2.65 l 0.7,2.7 l 0.66,2.65 l 0.67,3.36 l 0.66,2.66 l 0.67,2.69 l 0.66,2.66 l 0.66,3.36 l 0.67,2.66 l 0.7,2.69 v 3.32 l 0.67,2.7 l 0.66,3.32 l 0.66,2.69 l 0.67,3.36 v 2.66 l 0.66,3.36 l 0.67,3.32 v 2.69 l 0.66,3.32 l 0.66,3.36 v 2.66 l 0.71,3.36 v 3.32 l 0.66,2.69 v 3.36 l 0.66,3.32 v 3.36 l 0.67,2.66 v 3.36 l 0.66,3.32 v 6.01 l 0.67,3.36 v 3.36 l 0.66,3.32 v 6.68 l 0.67,2.7 v 6.68 l 0.7,3.36 v 6.68 l 0.66,3.98 v 3.36 l 0.67,3.36 v 7.34 l 0.66,3.36 v 7.35 l 0.66,3.32 v 4.02 l 0.67,4.02 v 3.32 l 0.66,4.03 v 4.02 l 0.67,4.03 v 3.98 l 0.66,4.02 v 4.69 l 0.7,3.98 v 4.03 l 0.67,4.69 v 4.02 l 0.66,4.65 v 4.02 l 1.33,9.38 v 4.68 l 0.66,4.65 l 0.67,4.69 v 4.69 l 0.66,5.35 v 4.69 l 0.71,5.35 l 0.66,4.69 v 5.35 l 0.66,5.35 l 0.67,5.31 v 5.35 l 1.33,10.71 v 5.35 l 0.66,6.01 l 0.66,5.35 l 0.67,6.02 v 6.02 l 0.7,6.01 l 0.67,6.02 v 6.05 l 1.32,12.03 v 6.68 l 0.67,6.02 l 0.66,6.68 v 6.01 l 1.33,13.36 v 6.72 l 0.7,6.68 l 0.67,6.68 v 6.68 l 0.66,6.68 l 0.66,7.38 v 6.68 l 0.67,6.68 l 0.66,7.35 v 6.68 l 0.67,7.38 v 7.34 l 0.66,6.68 l 0.67,7.35 v 7.38 l 0.7,7.34 v 7.35 l 0.66,6.71 v 7.35 l 0.67,7.34 v 7.35 l 0.66,7.38 v 7.34 l 0.66,8.01 l 0.67,7.38 v 7.35 l 0.66,7.34 v 7.38 l 0.67,7.35 v 7.34 l 0.7,6.68 v 7.38 l 1.33,14.69 v 7.34 l 0.66,6.72 v 7.35 l 0.67,6.68 l 0.66,7.34 v 6.72 l 0.66,6.68 l 0.67,7.34 l 0.66,6.68 v 6.68 l 0.71,6.02 l 0.66,6.72 l 0.66,6.68 l 0.67,6.01 l 0.66,6.68 l 0.67,6.02 v 6.01 l 1.32,12.03 l 0.71,5.36 l 0.66,6.01 l 0.67,5.35 l 1.32,5.35 l 2.66,21.41 l 0.7,4.69 l 0.67,4.69 l 0.66,5.31 l 0.66,4.69 l 0.67,4.02 l 0.66,4.69 l 1.33,4.68 l 0.7,3.99 l 1.33,8.05 l 0.67,3.98 l 0.66,3.36 l 0.66,4.02 l 0.67,3.32 l 1.33,3.36 l 0.7,3.36 l 0.66,3.32 l 0.67,2.7 l 0.66,3.32 l 0.67,2.69 l 0.66,2.66 l 0.66,1.99 l 0.67,2.7 l 0.7,1.99 l 0.67,2.69 l 0.66,2 l 0.66,1.32 l 0.67,2.04 l 0.66,1.32 l 0.67,2 l 0.66,1.32 l 2.03,2.04 l 0.67,1.32 l 1.99,2 h 0.66 l 1.37,0.7 h 3.32 l 0.66,-0.7 l 0.67,-0.67 l 1.36,-0.66 l 0.67,-0.67 l 1.33,-0.66 l 0.66,-1.33 l 0.66,-0.66 l 1.33,-1.37 l 0.71,-1.33 l 1.32,-1.99 l 0.67,-1.33 l 1.33,-2.03 l 0.66,-1.33 l 1.33,-1.99 l 0.7,-2.03 l 1.33,-1.99 l 0.66,-2 l 1.33,-2.69 l 0.67,-1.99 l 1.36,-2.7 l 0.67,-1.99 l 1.33,-2.7 l 1.32,-5.31 l 1.33,-2.69 l 0.67,-2.66 l 0.7,-2.7 l 0.66,-2.65 l 0.67,-3.36 l 0.66,-2.66 l 1.33,-2.69 l 0.66,-3.32 v -2.7 l 0.67,-3.36 l 0.7,-2.65 l 0.66,-3.36 l 0.67,-2.66 v -3.36 l 0.66,-3.32 v -2.69 l 0.67,-3.32 l 0.66,-3.36 v -6.68 l 0.66,-3.36 v -3.32 l 0.67,-4.03 v -6.68 l 0.66,-4.02 v -11.37 l 0.71,-4.02 v -16.02 l 0.66,-4.68 v -12.7 l 0.66,-4.69 v -14.72 l 0.67,-4.69 v -15.35 l 0.66,-5.35 v -10.71 l 0.67,-6.01 v -10.71 l 0.66,-6.01 v -6.02 l 0.66,-5.35 v -12.03 l 0.71,-6.02 v -6.67 l 0.66,-6.06 v -6.02 l 0.67,-6.67 v -6.02 l 0.66,-6.68 v -13.36 l 0.66,-6.02 l 0.67,-7.38 v -6.68 l 0.66,-6.68 v -6.68 l 0.67,-6.68 v -7.38 l 0.66,-6.68 v -7.34 l 0.7,-7.35 l 0.67,-6.72 v -7.34 l 0.66,-7.34 v -7.35 l 0.67,-7.38 l 0.66,-7.34 v -7.35 l 0.66,-8.04 l 0.67,-7.35 v -7.34 l 0.66,-8.05 l 0.7,-8.01 v -7.34 l 0.67,-8.05 l 0.66,-8 l 0.67,-8.05 v -8.01 l 0.66,-8.05 l 1.33,-16.01 v -8.05 l 0.66,-8.01 l 0.67,-8.71 l 0.7,-8.01 l 0.66,-8.71 v -8 l 0.67,-8.71 l 0.66,-8.01 l 0.67,-8.67 l 0.66,-8.05 l 0.66,-8.67 V 2060 l 0.67,-8.67 l 0.66,-8.05 l 0.71,-8.01 l 0.66,-8.71 l 0.66,-8.01 l 0.67,-8.04 l 0.66,-8.01 l 0.67,-7.34 l 0.66,-8.05 l 0.66,-8.01 l 0.71,-7.34 l 0.66,-7.39 l 1.99,-22.03 l 0.67,-6.72 l 0.66,-6.67 l 1.33,-6.68 l 0.7,-6.68 l 2.66,-24.07 l 1.33,-5.35 l 0.66,-6.01 l 0.7,-4.69 l 1.33,-5.35 l 0.67,-5.35 l 1.32,-9.38 l 1.33,-4.69 l 0.67,-3.98 l 0.7,-4.69 l 1.33,-4.02 l 0.66,-4.03 l 0.67,-3.98 l 1.32,-4.02 l 0.67,-3.36 l 0.7,-3.99 l 1.33,-3.36 l 0.66,-3.32 l 1.33,-6.72 l 1.33,-3.32 l 0.66,-3.36 l 0.71,-2.65 l 1.33,-3.36 l 0.66,-2.66 l 0.66,-2.69 l 0.67,-3.32 l 0.66,-2.7 l 1.37,-2.65 l 0.66,-2.7 l 0.67,-2.66 l 0.66,-2.69 l 0.67,-1.99 l 0.66,-2.66 l 0.66,-2.7 l 1.33,-1.99 l 0.7,-2.69 l 0.67,-1.99 l 1.33,-2 l 0.66,-2.69 l 0.66,-1.99 l 1.33,-2.04 l 0.71,-1.99 l 1.32,-1.99 l 1.33,-1.37 l 0.67,-1.99 l 1.32,-1.99 l 1.37,-1.37 l 1.33,-1.99 l 1.33,-1.33 l 1.99,-1.33 l 2.7,-2.69 l 1.99,-1.33 l 2.03,-1.33 l 1.99,-1.37 l 1.33,-0.66 l 2.69,-1.33 l 2,-0.66 l 1.99,-1.33 l 2.69,-0.66 l 2.66,-0.67 l 2.03,-0.7 l 2.66,-0.67 l 2.69,-0.66 l 3.32,-0.66 h 2.7 l 2.66,-0.67 l 3.35,-0.66 h 3.32 l 3.36,-0.67 h 6.68 l 3.36,-0.66 h 10.71 l 3.98,-0.7 h 195.27"
         style="fill:none;stroke:#000000;stroke-width:5.66929102;stroke-linecap:round;stroke-linejoin:round;stroke-miterlimit:4;stroke-dasharray:none;stroke-opacity:1"
         id="path1179"
         inkscape:connector-curvature="0" />
      <path
         d="m 3205.66,1714.3 h 13.36 m 15.39,0 h 4.03 l 2.65,0.7 h 6.68 m 15.39,1.33 h 3.36 l 2.66,0.66 h 3.36 l 3.32,0.67 h 0.66 m 15.39,1.99 l 2.04,0.7 l 3.98,0.67 l 4.02,0.66 l 3.36,0.66 m 15.35,2.66 l 2.04,0.66 l 3.98,1.37 l 4.02,0.67 l 3.36,0.66 m 15.35,3.36 l 3.36,1.33 l 4.69,1.32 l 3.99,1.33 h 1.36 m 15.35,4.03 l 0.67,0.66 l 4.69,1.33 l 4.02,0.66 l 4.02,1.37 m 15.35,4.65 l 1.37,0.7 l 3.32,0.67 l 8.05,2.65 h 0.66 m 15.35,4.69 l 1.37,0.66 l 3.32,1.33 l 2.7,0.67 l 3.32,1.36 l 2.69,0.67 m 15.35,5.35 l 1.37,0.66 l 2.66,1.33 l 2.03,0.66 l 2.66,1.33 l 2.65,0.71 l 2.03,0.66 m 15.39,7.34 h 0.67 l 2.65,1.33 l 2,0.67 l 2.69,1.36 l 1.99,0.67 l 2.7,1.33 l 0.66,0.66 m 15.39,8.01 h 0.67 l 2.65,1.36 l 2,1.33 l 2.69,1.33 l 2.66,1.33 l 2.03,1.37 l 0.66,0.66 m 15.39,8.67 l 2,0.67 l 2.65,1.36 l 2.7,2 l 1.99,1.32 l 2.69,1.33 l 1.33,1.37 m 15.39,10 l 1.33,0.7 l 1.99,1.33 l 2.7,1.99 l 2.66,1.33 l 2.03,2.03 l 2.65,1.99 m 15.39,11.37 l 1.33,1.33 l 2.66,1.37 l 2.03,1.99 l 2.66,1.99 l 2.03,2.03 l 2.65,1.33 m 15.39,12.03 l 2.66,2.66 l 2.03,1.36 l 1.99,2 l 2.66,1.32 l 2.03,2.04 l 1.99,1.32 m 15.39,12.04 l 1.33,0.66 l 2.7,1.33 l 1.99,1.36 l 1.99,1.33 l 2.03,1.33 l 1.99,1.33 l 1.33,1.33 m 15.39,9.37 l 2.66,1.33 l 2.03,1.37 l 3.99,2.65 l 2.69,1.33 l 1.99,0.67 m 15.39,8.04 l 0.67,0.67 l 2.65,0.66 l 2.03,1.33 l 2.66,0.66 l 2.03,1.37 l 2.66,1.33 h 0.66 m 15.39,6.01 l 0.67,0.67 l 1.99,0.66 l 2.03,0.67 l 2.66,1.36 l 2.03,0.67 l 3.98,1.33 m 15.39,5.35 h 1.33 l 2.03,0.66 h 1.33 l 2.66,1.33 h 1.36 l 1.33,0.66 h 0.67 l 1.32,0.67 h 1.33 m 15.39,2.03 h 8.71 l 1.33,-0.67 h 3.32 m 15.39,-4.02 l 2,-1.33 h 1.36 l 1.99,-1.36 h 2 l 2.03,-0.67 l 3.98,-1.33 m 15.39,-6.01 l 2.03,-0.67 l 2,-0.66 l 2.65,-1.33 l 2.03,-0.7 l 2.66,-0.67 l 1.99,-1.32 m 15.39,-6.68 l 1.33,-0.67 l 2.7,-0.66 l 1.99,-1.37 l 2.69,-1.33 l 2,-1.32 l 2.69,-0.67 m 15.35,-8.71 l 2.03,-1.33 l 3.99,-2.65 l 2.03,-0.67 l 2.66,-1.37 l 1.99,-1.32 l 0.7,-0.67 m 15.35,-10.7 h 0.67 l 2.03,-1.99 l 1.99,-1.37 l 1.99,-1.33 l 2.03,-1.99 l 2,-1.33 l 2.69,-1.37 m 15.35,-12.69 l 2.03,-1.33 l 2,-1.33 l 2.69,-2.03 l 1.99,-1.99 l 2,-1.33 l 2.69,-2.03 m 15.35,-12.03 l 0.71,-0.67 l 2.65,-1.99 l 1.99,-1.33 l 2.7,-2.03 l 2.66,-1.99 l 2.03,-1.99 l 0.66,-0.7 m 15.35,-10.67 l 1.37,-0.7 l 2.66,-1.33 l 2.69,-1.99 l 1.99,-1.33 l 2.66,-2.03 l 2.03,-1.33 m 15.35,-9.37 h 0.71 l 2.65,-2 l 1.99,-1.32 l 2.7,-1.33 l 2.66,-1.37 l 2.69,-1.33 m 15.39,-8.67 l 1.99,-0.7 l 2,-1.33 l 2.69,-1.33 l 2.66,-1.33 l 2.03,-1.33 l 1.99,-0.7 m 15.39,-7.34 l 1.33,-0.67 l 1.99,-1.32 l 2.7,-1.33 l 1.99,-0.71 l 2.66,-1.32 l 2.03,-0.67 l 0.66,-0.66 m 15.39,-5.35 l 3.99,-2 l 2.69,-0.66 l 2.66,-1.37 l 2.69,-0.66 l 1.33,-0.67 m 15.39,-5.35 l 1.99,-0.66 l 3.36,-1.33 l 3.32,-1.33 l 4.03,-0.7 h 0.66 m 15.39,-4.65 l 2.66,-1.37 l 4.02,-1.32 l 4.69,-1.33 l 1.99,-0.67 m 15.39,-4.02 l 3.32,-1.33 l 4.69,-1.33 l 4.02,-1.36 h 1.33 m 15.39,-3.99 l 1.33,-0.66 l 4.02,-0.7 l 4.69,-1.33 l 3.32,-0.67 m 15.39,-3.36 l 2.66,-0.66 l 4.02,-1.33 l 4.03,-0.66 h 2.65 m 15.39,-2.66 l 1.33,-0.7 l 4.02,-0.67 l 3.32,-0.66 h 4.69 m 15.39,-1.99 l 3.36,-0.67 h 6.02 l 2.65,-0.66 h 1.33 m 15.39,-0.7 h 13.36 m 15.39,0 h 0.67"
         style="fill:none;stroke:#ff0000;stroke-width:5.66929102;stroke-linecap:round;stroke-linejoin:round;stroke-miterlimit:4;stroke-dasharray:none;stroke-opacity:1"
         id="path1181"
         inkscape:connector-curvature="0" />
      <path
         d="m 3090,1714.3 h 3.32 m 14.06,0 h 2 l 1.32,0.7 m 14.07,0.66 l 1.32,0.67 h 2 m 14.06,1.99 h 0.66 l 1.99,0.66 h 0.67 m 14.06,2.7 h 3.36 m 14.02,2.66 h 3.36 m 14.03,1.32 h 1.33 l 2.03,0.71 m 14.02,1.33 h 1.33 l 2.03,0.66 m 14.02,1.33 h 0.67 l 2.69,0.66 m 14.03,2.03 h 3.35 m 14.03,2.66 h 0.66 l 2.7,0.66 m 14.02,2.7 l 2.7,0.66 h 0.66 m 14.02,2.66 l 2.04,0.66 h 1.32 m 14.03,4.03 h 3.36 m 14.02,4.68 h 3.36 m 14.02,4.69 l 1.37,0.67 l 1.99,0.66 m 14.06,4.69 l 0.67,0.66 l 1.99,0.66 h 0.66 m 14.07,6.02 l 1.33,0.66 h 1.99 m 14.06,6.02 l 1.33,0.66 l 1.99,0.71 m 14.06,6.01 l 1.33,0.67 h 1.99 m 14.07,6.01 h 0.66 l 2.66,1.33 m 14.06,4.69 l 0.66,0.66 l 2.66,0.67 m 14.06,4.68 l 1.33,0.67 h 1.99 m 14.06,5.35 l 2.66,0.66 h 0.7 m 14.03,4.69 l 0.66,0.67 l 2.7,0.66 m 14.02,5.35 l 0.66,0.66 l 2.7,0.67 m 14.02,4.69 l 0.67,0.66 l 2.69,0.66 m 14.03,5.36 l 2.69,0.66 h 0.66 m 14.03,4.69 l 1.33,0.66 h 2.03 m 14.02,4.03 l 2.03,0.66 h 1.33 m 14.02,3.36 h 3.36 m 14.03,2.65 l 2.69,0.67 h 0.67 m 14.02,2.03 h 0.7 l 1.99,0.66 h 0.67 m 14.02,2 h 1.37 l 1.99,0.66 m 14.06,2.03 h 3.32 m 14.07,1.99 h 3.32 m 14.06,2 h 3.32 m 14.06,2.69 h 3.32 m 14.07,1.99 h 3.32 m 14.06,1.33 l 1.33,0.67 h 1.99 m 14.06,0.7 l 1.99,0.66 h 1.33 m 14.06,0.67 h 3.32 m 14.07,-0.67 h 3.36 m 14.02,-0.66 h 3.36 m 14.02,-1.37 h 0.67 l 2.69,-0.66 m 14.02,-1.33 h 3.36 m 14.03,-1.99 h 3.36 m 14.02,-2.7 h 3.36 m 14.02,-1.99 h 0.67 l 2.69,-0.66 m 14.03,-1.37 h 0.66 l 2.03,-0.67 h 0.67 m 14.02,-1.99 h 3.36 m 14.02,-1.99 l 2.03,-0.66 h 1.33 m 14.02,-2.7 h 3.36 m 14.07,-3.36 h 3.32 m 14.06,-3.32 l 0.66,-0.66 l 2,-0.67 h 0.66 m 14.06,-3.36 l 1.33,-0.66 l 1.99,-0.66 m 14.06,-4.03 l 0.67,-0.66 l 1.99,-0.67 l 0.67,-0.66 m 14.06,-4.69 l 2.65,-0.66 l 0.67,-0.67 m 14.06,-4.68 l 2.66,-1.33 h 0.66 m 14.06,-4.69 l 0.67,-0.66 l 2.65,-0.67 m 14.07,-4.68 l 1.32,-0.67 l 2,-0.66 m 14.06,-4.69 l 2.66,-1.33 h 0.7 m 14.02,-4.69 l 2.66,-1.36 h 0.7 m 14.02,-5.32 l 2.7,-0.7 l 0.66,-0.66 m 14.03,-5.35 l 1.33,-0.67 l 2.03,-0.66 m 14.02,-5.35 l 1.33,-0.67 l 2.03,-1.33 m 14.02,-5.35 l 0.67,-0.66 l 2.03,-0.67 h 0.66 m 14.03,-5.35 l 1.32,-0.66 l 2.04,-1.37 m 14.02,-3.98 l 0.66,-0.67 l 2.03,-0.7 h 0.67 m 14.02,-3.98 l 2.03,-0.67 h 1.33 m 14.02,-4.02 l 2.7,-0.67 h 0.66 m 14.03,-2.69 l 1.36,-0.67 l 2,-0.66 m 14.06,-2.66 h 0.66 l 2,-0.7 h 0.66 m 14.06,-2.66 l 2.66,-0.66 h 0.66 m 14.06,-1.99 h 1.33 l 1.99,-0.7 m 14.07,-2 h 3.32 m 14.06,-1.32 l 0.66,-0.67 h 2.66 m 14.06,-1.37 h 3.32 m 14.07,-1.99 h 0.66 l 1.99,-0.66 h 0.67 m 14.06,-1.99 h 0.66 l 1.99,-0.67 h 0.67 m 14.06,-2.03 h 1.33 l 2.03,-0.66 m 14.02,-2 h 3.36 m 14.03,-1.36 h 3.36"
         style="fill:none;stroke:#0000ff;stroke-width:5.66929102;stroke-linecap:round;stroke-linejoin:round;stroke-miterlimit:4;stroke-dasharray:none;stroke-opacity:1"
         id="path1183"
         inkscape:connector-curvature="0" />
      <path
         d="m 3466.45,1716.99 l 9.33,4.69 l 0.7,0.66 l 1.33,0.67 h 0.67 l 1.32,0.66 l 0.67,0.67 l 1.37,0.66 l 1.32,0.66 l 1.33,0.71 l 2.66,1.33 l 1.37,0.66 l 1.32,1.33 l 2,0.66 l 1.36,0.67 l 1.33,0.7 l 1.99,1.33 l 1.33,0.66 l 2.03,1.33 l 1.33,0.66 l 1.99,1.33 l 2.03,0.7 l 1.33,1.33 l 1.99,1.33 l 2.04,0.66 l 1.99,1.33 l 1.99,1.37 l 2.03,1.33 l 1.99,1.33 l 2,0.66 l 2.03,1.33 l 1.99,1.37 l 1.99,1.99 l 2.7,1.33 l 1.99,1.36 l 2.03,1.33 l 2.66,1.33 l 1.99,1.33 l 2.03,2.03 l 2.66,1.33 l 2.03,1.32 l 1.99,2 l 2.66,1.36 l 2.03,2 l 2.65,1.32 l 2.03,2.04 l 2.66,1.32 l 1.99,2 l 2.7,2.03 l 1.99,1.33 l 2.7,1.99 l 1.99,1.99 l 2.65,2.03 l 2.04,1.33 l 2.65,1.99 l 4.03,4.02 l 2.65,2 l 2.03,2.03 l 2.66,1.99 l 4.02,4.02 l 2.66,2 l 4.02,4.02 l 2.7,1.99 l 1.99,2.03 l 1.99,2 l 2.03,2.65 l 2,2.03 l 2.69,1.99 l 1.99,2.7 l 2,1.99 l 2.03,1.99 l 1.99,2.7 l 1.99,2.66 l 2.7,2.03 l 1.99,2.65 l 1.99,2.7 l 2.03,1.99 l 1.99,2.66 l 2.04,2.69 l 1.99,2.66 l 2.65,2.69 l 2.03,2.66 l 2,3.36 l 1.99,2.66 l 2.03,2.69 l 1.99,3.32 l 1.99,2.7 l 2.7,3.32 l 1.99,3.36 l 2.03,2.65 l 2,3.36 l 2.65,3.36 l 2.03,3.32 l 2,3.36 l 2.03,4.02 l 2.65,3.33 l 2,3.35 l 2.03,3.99 l 2.65,3.36 l 2.03,4.02 l 2.66,3.99 l 1.99,4.02 l 2.03,4.02 l 2.66,4.03 l 2.03,3.98 l 2.66,4.69 l 2.65,4.02 l 2.03,4.69 l 2.66,3.98 l 2.03,4.69 l 2.66,4.69 l 2.69,4.69 l 2.66,4.68 l 1.99,5.36 l 2.7,4.64 l 2.65,5.36 l 2.7,4.68 l 2.66,5.35 l 2.69,5.36 l 2.66,5.35 l 2.69,5.35 l 2.66,5.35 l 3.36,5.35 l 2.65,5.35 l 2.7,5.36 l 2.66,5.35 l 2.69,4.65 l 3.32,5.35 l 2.7,5.35 l 2.65,4.69 l 3.36,4.68 l 2.66,4.69 l 3.36,3.99 l 2.65,4.68 l 3.36,4.03 l 2.66,4.02 l 3.36,3.32 l 2.66,3.36 l 3.35,2.66 l 2.66,2.69 l 3.36,2.66 l 2.66,2.03 l 3.36,1.99 l 2.69,1.33 l 3.32,0.66 l 2.7,0.67 l 3.32,0.7 l 3.36,-0.7 l 2.65,-0.67 l 3.36,-0.66 l 2.66,-1.33 l 3.36,-1.99 l 2.65,-2.03 l 3.36,-2.66 l 2.66,-2.69 l 3.36,-2.66 l 2.66,-3.36 l 3.35,-3.32 l 2.7,-4.02 l 3.32,-4.03 l 2.7,-4.68 l 3.32,-3.99 l 2.69,-4.69 l 3.32,-4.68 l 2.7,-4.69 l 2.65,-5.35 l 3.36,-5.35 l 2.66,-4.65 l 2.69,-5.35 l 2.66,-5.36 l 2.7,-5.35 l 3.32,-5.35 l 2.69,-5.35 l 2.66,-5.35 l 2.69,-5.35 l 2.66,-5.36 l 2.69,-5.35 l 2.66,-4.68 l 2.66,-5.36 l 2.69,-4.64 l 1.99,-5.36 l 2.7,-4.68 l 2.66,-4.69 l 2.69,-4.69 l 1.99,-4.69 l 2.7,-3.98 l 1.99,-4.69 l 2.66,-4.02 l 2.69,-4.69 l 1.99,-3.98 l 2.7,-4.03 l 3.98,-8.04 l 2.7,-3.99 l 1.99,-4.02 l 2.7,-3.36 l 1.99,-3.99 l 1.99,-3.35 l 2.7,-3.33 l 1.99,-4.02 l 2.03,-3.36 l 1.99,-3.32 l 2.66,-3.36 l 2.03,-3.36 l 1.99,-2.65 l 1.99,-3.36 l 2.7,-3.32 l 1.99,-2.7 l 2.03,-3.32 l 2,-2.69 l 1.99,-2.66 l 2.03,-3.36 l 1.99,-2.66 l 2.66,-2.69 l 2.03,-2.66 l 1.99,-2.69 l 2.03,-2.66 l 1.99,-1.99 l 2,-2.7 l 2.03,-2.65 l 2.65,-2.03 l 2,-2.66 l 2.03,-2.7 l 3.98,-3.98 l 2.03,-2.7 l 2.66,-1.99 l 2.03,-2.03 l 1.99,-2.65 l 4.03,-4.03 l 2.65,-1.99 l 2.03,-1.99 l 2,-2.03 l 2.65,-2 l 2.03,-1.99 l 2,-2.03 l 2.69,-1.99 l 1.99,-2.03 l 2.66,-2 l 2.03,-1.99 l 1.99,-2.03 l 2.7,-1.99 l 1.99,-1.33 l 2.66,-2.03 l 2.03,-1.99 l 2.65,-1.99 l 2,-1.33 l 2.69,-2.03 l 1.99,-2 l 2.7,-1.32 l 1.99,-2.04 l 2.7,-1.32 l 1.99,-2 l 2.65,-1.36 l 2.04,-2 l 1.99,-1.32 l 2.69,-1.33 l 2,-2.03 l 1.99,-1.33 l 2.69,-1.33 l 2,-1.33 l 1.99,-1.36 l 2.69,-1.33 l 2,-1.99 l 2.03,-1.37 l 1.99,-1.33 l 1.99,-0.66 l 2.03,-1.33 l 1.99,-1.33 l 2,-1.37 l 2.03,-1.33 l 1.99,-0.66 l 1.99,-1.33 l 1.37,-1.33 l 1.99,-0.7 l 1.99,-1.33 l 1.37,-0.66 l 1.99,-1.33 l 1.33,-0.66 l 2.03,-1.33 l 1.33,-0.7 l 1.33,-0.67 l 1.99,-0.66 l 1.37,-1.33 l 3.98,-1.99 l 1.37,-0.71 l 2.66,-1.32 l 0.66,-0.67 l 1.33,-0.66 h 0.7 l 1.33,-0.67 l 0.66,-0.66 l 9.38,-4.69"
         style="fill:none;fill-opacity:1;stroke:#7c7c00;stroke-width:5.66929102;stroke-linecap:round;stroke-linejoin:round;stroke-miterlimit:4;stroke-dasharray:none;stroke-opacity:1"
         id="path1185"
         inkscape:connector-curvature="0" />
      <path
         d="m 3465.78,1716.99 h 1.33 m 48.83,26.1 h 1.33 m 72.89,52.14 h 1.32 m 59.5,66.84 h 1.32 m 65.55,116.37 h 1.33 m 90.27,193.24 h 1.33 m 90.27,-193.24 h 1.33 m 65.55,-116.37 h 1.33 m 59.53,-66.84 h 1.33 m 72.89,-52.14 h 1.33 m 48.79,-26.1 h 1.36"
         style="fill:none;stroke:#00ff00;stroke-width:0.66864902;stroke-linecap:round;stroke-linejoin:round;stroke-miterlimit:4;stroke-dasharray:none;stroke-opacity:1"
         id="path1187"
         inkscape:connector-curvature="0" />
      <path
         d="m 3351.45,1714.3 h 20.03 l 1.33,0.7 h 6.02 l 1.37,0.66 h 3.32 l 1.32,0.67 h 2.04 l 1.99,0.66 h 1.33 l 2.03,0.67 h 1.99 l 1.99,0.66 l 2.03,0.66 l 1.33,0.67 l 1.99,0.7 h 2.7 l 1.99,0.67 l 2.03,1.32 l 3.99,1.33 l 2.03,0.67 l 2.65,0.66 l 2,1.37 l 2.03,0.66 l 1.99,0.67 l 2.69,1.32 l 2,0.67 l 2.65,1.33 l 2.03,0.7 l 2.66,1.33 l 2.03,1.32 l 2.66,0.67 l 1.99,1.33 l 2.7,1.36 l 1.99,0.67 l 2.69,1.33 l 1.99,1.32 l 2.7,1.33 l 2.66,1.37 l 1.99,0.66 l 2.69,1.33 l 2,1.33 l 2.69,1.33 l 2.66,1.37 l 2.03,0.66 l 2.66,1.33 l 1.99,1.33 l 2.69,1.36 l 1.99,1.33 l 2.7,1.33 l 1.99,0.66 l 2.66,1.33 l 2.03,1.37 l 2.66,1.33 l 2.03,1.32 l 2.65,1.33 l 2,0.67 l 2.69,1.36 l 1.99,1.33 l 2.7,1.33 l 1.99,1.33 l 1.99,0.66 l 2.7,1.37 l 1.99,1.33 l 2.7,1.33 l 1.99,1.32 l 1.99,1.37 l 2.7,0.67 l 1.99,1.32 l 2.03,1.33 l 1.99,1.33 l 2.66,1.37 l 2.03,1.33 l 1.99,1.32 l 1.99,0.67 l 2.03,1.36 l 2.66,1.33 l 2.03,1.33 l 3.99,2.66 l 2.03,1.36 l 3.98,2.66 l 2.7,1.33 l 1.99,1.37 l 2.03,1.32 l 3.98,2.66 l 2.04,1.37 l 1.99,1.99 l 1.99,1.33 l 2.7,1.33 l 1.99,1.36 l 2.03,2 l 1.99,1.32 l 1.99,2.03 l 2.7,1.33 l 1.99,1.99 l 1.99,1.33 l 2.7,2.03 l 1.99,1.33 l 2.03,1.99 l 2.66,2.04 l 1.99,1.99 l 2.7,1.99 l 1.99,2.03 l 2.69,1.99 l 2,2 l 2.69,2.03 l 2.66,1.99 l 4.68,4.69 l 2.66,1.99 l 2.7,2.69 l 2.65,2 l 2.03,2.69 l 2.66,1.99 l 2.7,2.66 l 2.65,2.03 l 5.35,5.35 l 2.66,2 l 5.35,5.35 l 2.7,2.65 l 3.32,2.7 l 2.69,2.65 l 2.66,2.04 l 2.69,2.65 l 2.66,2.7 l 2.69,2.65 l 2.66,2.7 l 3.36,2.66 l 2.66,2.69 l 2.69,2.66 l 2.66,2.69 l 2.69,2.66 l 5.36,5.35 l 3.32,2.66 l 8.04,8.04 l 2.66,2 l 5.35,5.35 l 2.66,2.69 l 2.69,2.66 l 2.66,1.99 l 5.35,5.35 l 2.69,2.03 l 2.66,2.66 l 2.7,2.03 l 1.99,2.66 l 2.69,1.99 l 2.66,2.03 l 2.7,1.99 l 1.99,2.7 l 2.65,1.99 l 2.04,1.99 l 1.99,2.03 l 2.69,1.33 l 1.99,1.99 l 2,2.04 l 2.69,1.32 l 1.99,2 l 2,1.32 l 2.03,1.37 l 1.33,1.99 l 1.99,1.33 l 2.03,1.33 l 1.99,0.66 l 1.33,1.37 l 2.03,1.33 l 1.99,1.33 l 1.33,0.66 l 2.03,1.37 l 2.66,1.33 l 1.99,0.66 l 1.37,0.66 l 1.33,0.67 l 1.99,0.66 l 1.33,0.67 l 1.36,0.66 l 1.33,0.7 h 1.33 l 1.33,0.67 h 2.03 l 1.33,0.66 h 2.65 l 1.37,0.67 h 5.35 l 1.33,-0.67 h 2.66 l 1.36,-0.66 h 2 l 1.32,-0.67 h 1.33 l 1.37,-0.7 l 2.66,-1.33 l 1.99,-0.66 l 1.37,-0.67 l 1.32,-0.66 l 2,-0.66 l 1.36,-0.67 l 1.33,-0.66 l 1.99,-1.37 l 1.33,-0.66 l 2.03,-1.33 l 1.99,-1.33 l 1.33,-1.37 l 2.03,-0.66 l 3.99,-2.66 l 1.37,-1.99 l 1.99,-1.37 l 1.99,-1.32 l 2.7,-2 l 1.99,-1.32 l 1.99,-2.04 l 2.03,-1.99 l 2.66,-1.33 l 4.02,-4.02 l 2.66,-1.99 l 2.03,-2.7 l 2.65,-1.99 l 2.7,-2.03 l 2.66,-1.99 l 2.03,-2.66 l 2.65,-2.03 l 2.66,-2.66 l 2.7,-2.03 l 5.35,-5.35 l 2.65,-1.99 l 2.7,-2.66 l 2.65,-2.69 l 2.7,-2.66 l 2.66,-2.69 l 2.69,-2 l 2.66,-2.69 l 2.69,-2.66 l 2.66,-2.69 l 3.36,-2.66 l 2.65,-2.7 l 2.7,-2.65 l 10.7,-10.7 l 3.32,-2.66 l 10.71,-10.7 l 2.65,-2.04 l 2.7,-2.65 l 3.36,-2.7 l 8.01,-8 l 2.65,-2 l 5.35,-5.35 l 2.7,-2.03 l 2.65,-2.66 l 2.7,-1.99 l 1.99,-2.69 l 2.7,-2 l 2.65,-2.69 l 2.7,-1.99 l 2.66,-2.7 l 1.99,-1.99 l 2.69,-1.99 l 2.66,-2.03 l 2.03,-2 l 2.66,-1.99 l 1.99,-2.03 l 2.69,-1.99 l 2,-1.99 l 2.69,-2.04 l 1.99,-1.99 l 2,-1.33 l 2.69,-2.03 l 1.99,-1.33 l 2.03,-1.99 l 2.66,-1.33 l 1.99,-2.03 l 2.03,-1.32 l 2,-2 l 2.03,-1.36 l 2.65,-1.33 l 2,-1.33 l 2.03,-1.99 l 1.99,-1.37 l 1.99,-1.33 l 2.03,-1.33 l 2,-1.32 l 1.99,-1.37 l 2.69,-1.33 l 2,-1.33 l 2.03,-1.33 l 1.99,-1.36 l 1.99,-1.33 l 2.03,-1.33 l 3.99,-2.66 l 2.69,-1.36 l 1.99,-0.67 l 2.04,-1.32 l 1.99,-1.33 l 2.65,-1.37 l 2.03,-1.33 l 3.99,-2.65 l 2.69,-0.67 l 2,-1.37 l 2.03,-1.32 l 2.65,-1.33 l 2,-1.33 l 2.69,-1.37 l 1.99,-0.66 l 2.04,-1.33 l 2.65,-1.33 l 1.99,-1.33 l 2.7,-1.36 l 1.99,-0.67 l 2.7,-1.33 l 1.99,-1.32 l 2.69,-1.33 l 2,-1.37 l 2.65,-1.33 l 2.03,-0.66 l 2.66,-1.33 l 2.03,-1.33 l 2.66,-1.36 l 1.99,-1.33 l 2.69,-1.33 l 2,-0.66 l 2.69,-1.37 l 2.66,-1.33 l 1.99,-1.33 l 2.7,-1.33 l 1.99,-0.66 l 2.69,-1.37 l 2.66,-1.33 l 2.03,-1.32 l 2.66,-1.33 l 1.99,-0.67 l 2.69,-1.36 l 2,-1.33 l 2.69,-0.67 l 1.99,-1.32 l 2.7,-1.33 l 1.99,-0.7 l 2.66,-1.33 l 2.03,-0.67 l 2.66,-1.32 l 2.03,-0.67 l 1.99,-0.66 l 1.99,-1.37 l 2.7,-0.66 l 3.98,-1.33 l 2.03,-0.67 l 1.99,-1.32 h 2 l 2.69,-0.67 l 1.99,-0.7 l 1.37,-0.67 l 3.99,-1.32 h 2.03 l 1.99,-0.67 h 1.33 l 1.99,-0.66 h 2.03 l 1.33,-0.67 h 3.36 l 1.33,-0.66 h 6.01 l 1.33,-0.7 h 20.08"
         style="fill:none;stroke:#000080;stroke-width:4.6805501;stroke-linecap:round;stroke-linejoin:round;stroke-miterlimit:4;stroke-dasharray:none;stroke-opacity:1"
         id="path1189"
         inkscape:connector-curvature="0" />
      <path
         d="m 3350.74,1714.3 h 1.37 m 46.8,0 h 1.32 m 72.9,38.12 h 1.32 m 67.54,35.43 h 1.33 m 57.5,40.82 h 1.37 m 82.22,79.57 h 1.33 m 82.27,79.53 h 1.33 m 40.11,20.75 h 1.33 m 40.12,-20.75 h 1.37 m 82.22,-79.53 h 1.33 m 82.27,-79.57 h 1.32 m 57.5,-40.82 h 1.33 m 67.54,-35.43 h 1.33 M 4220,1714.3 h 1.33 m 46.83,0 h 1.33"
         style="fill:none;stroke:#000080;stroke-width:5.66929102;stroke-linecap:round;stroke-linejoin:round;stroke-miterlimit:4;stroke-dasharray:none;stroke-opacity:1"
         id="path1191"
         inkscape:connector-curvature="0" />
      <g
         id="g1193"
         transform="matrix(10,0,0,10,794.99996,0)">
        <text
           transform="matrix(1,0,0,-1,313.414,197.776)"
           style="font-variant:normal;font-weight:normal;font-size:7.41782999px;font-family:'Times New Roman';-inkscape-font-specification:TimesNewRomanPSMT;writing-mode:lr-tb;fill:#7c7c00;fill-opacity:1;fill-rule:nonzero;stroke:none;stroke-opacity:1"
           id="text1199">
          <tspan
             sodipodi:role="line"
             id="tspan1195"
             x="0"
             y="6.5630412" />
          <tspan
             x="-2.8753901 0.55898887 4.2679038 7.976819 11.685734 13.540192"
             y="-10.8992"
             sodipodi:role="line"
             id="tspan1197">1100 K</tspan>
        </text>
        <text
           id="text1632"
           style="font-variant:normal;font-weight:normal;font-size:7.41782999px;font-family:'Times New Roman';-inkscape-font-specification:TimesNewRomanPSMT;writing-mode:lr-tb;fill:#000080;fill-opacity:1;fill-rule:nonzero;stroke:none"
           transform="scale(1,-1)"
           x="311.9408"
           y="-200.18672">
          <tspan
             id="tspan1630"
             sodipodi:role="line"
             x="311.9408"
             y="-200.18672">1300 K</tspan>
        </text>
        <text
           y="-191.2135"
           x="318.36935"
           transform="scale(1,-1)"
           style="font-variant:normal;font-weight:normal;font-size:7.41782999px;font-family:'Times New Roman';-inkscape-font-specification:TimesNewRomanPSMT;writing-mode:lr-tb;fill:#ff0000;fill-opacity:1;fill-rule:nonzero;stroke:none"
           id="text1657">
          <tspan
             y="-191.2135"
             x="318.36935"
             sodipodi:role="line"
             id="tspan1655">1500 K</tspan>
        </text>
        <text
           id="text1661"
           style="font-variant:normal;font-weight:normal;font-size:7.41782999px;font-family:'Times New Roman';-inkscape-font-specification:TimesNewRomanPSMT;writing-mode:lr-tb;fill:#0000ff;fill-opacity:1;fill-rule:nonzero;stroke:none"
           transform="scale(1,-1)"
           x="328.14615"
           y="-183.7135">
          <tspan
             id="tspan1659"
             sodipodi:role="line"
             x="328.14615"
             y="-183.7135">1700 K</tspan>
        </text>
      </g>
      <text
         id="text1213"
         style="font-variant:normal;font-weight:normal;font-size:74.17829895px;font-family:'Times New Roman';-inkscape-font-specification:TimesNewRomanPSMT;writing-mode:lr-tb;fill:#000000;fill-opacity:1;fill-rule:nonzero;stroke:none;stroke-width:10"
         transform="scale(1,-1)"
         x="3860.2739"
         y="-2684.52">
        <tspan
           id="tspan1207"
           sodipodi:role="line"
           y="-2684.52"
           x="3860.2739 3897.363 3934.4521 3971.5415 3990.0859"
           style="stroke-width:10">300 K</tspan>
        <tspan
           id="tspan1209"
           sodipodi:role="line"
           style="stroke-width:10"
           x="3860.2739"
           y="-2.0038929" />
        <tspan
           id="tspan1211"
           sodipodi:role="line"
           style="stroke-width:10"
           x="3860.2739"
           y="0" />
      </text>
      <g
         id="g1215"
         style="fill:none;fill-opacity:1;stroke:#7c7c00;stroke-width:5.66929102;stroke-miterlimit:4;stroke-dasharray:none;stroke-opacity:1"
         transform="translate(959.99995)">
        <g
           id="g1217"
           clip-path="url(#clipPath1221)"
           style="fill:none;fill-opacity:1;stroke:#7c7c00;stroke-width:5.66929102;stroke-miterlimit:4;stroke-dasharray:none;stroke-opacity:1">
          <g
             id="g1223"
             transform="scale(0.84414,-1.15586)"
             style="fill:none;fill-opacity:1;stroke:#7c7c00;stroke-width:5.73943186;stroke-miterlimit:4;stroke-dasharray:none;stroke-opacity:1">
            <path
               d="m 880.884,-1487.53 l 9.44,-4.69 l 0.648,-0.69 l 1.342,-0.67 h 0.703 l 1.338,-0.67 l 0.694,-0.68 l 1.342,-0.64 l 6.714,-3.38 l 1.338,-1.35 l 2.036,-0.68 l 1.337,-0.67 l 1.342,-0.65 l 1.99,-1.35 l 1.342,-0.68 l 2.041,-1.35 l 1.342,-0.67 l 2.031,-1.36 l 1.99,-0.67 l 1.342,-1.32 l 2.04,-1.35 l 2.037,-0.67 l 1.989,-1.36 l 2.032,-1.35 l 1.99,-1.31 l 2.04,-1.36 l 2.037,-0.68 l 1.989,-1.35 l 2.032,-1.35 l 1.99,-2 l 2.734,-1.35 l 1.99,-1.35 l 2.032,-1.35 l 2.693,-1.35 l 1.99,-1.32 l 2.031,-2.02 l 2.684,-1.36 l 2.032,-1.35 l 1.989,-1.99 l 2.735,-1.35 l 1.99,-2.03 l 2.679,-1.36 l 2.046,-1.99 l 2.679,-1.35 l 2.036,-2.03 l 2.68,-2.03 l 1.989,-1.31 l 2.694,-2.03 l 2.031,-2.03 l 2.684,-2.03 l 2.031,-1.31 l 2.689,-2.04 l 2.036,-2.02 l 1.99,-2 l 2.679,-2.02 l 2.045,-2.03 l 2.68,-2.03 l 2.04,-1.99 l 1.99,-2.03 l 2.68,-2.03 l 2.04,-1.99 l 2.03,-2.03 l 2.68,-2.03 l 1.99,-1.99 l 2.04,-2.03 l 1.99,-2.71 l 2.04,-1.99 l 2.68,-2.02 l 2.04,-2.71 l 1.99,-1.99 l 2.03,-2.03 l 2.04,-2.7 l 1.98,-2.67 l 2.69,-2.03 l 2.04,-2.71 l 1.99,-2.66 l 2.04,-2.03 l 2.04,-2.7 l 1.99,-2.68 l 2.03,-2.69 l 2.68,-2.68 l 2.03,-2.7 l 1.99,-3.35 l 2.04,-2.7 l 1.99,-2.7 l 2.04,-3.35 l 2.03,-2.7 l 2.69,-3.35 l 1.99,-3.38 l 2.04,-2.67 l 2.03,-3.38 l 2.69,-3.35 l 1.99,-3.37 l 2.03,-3.35 l 1.99,-4.06 l 2.73,-3.34 l 1.99,-3.38 l 2.04,-4.02 l 2.68,-3.38 l 2.03,-4.02 l 2.7,-4.02 l 1.99,-4.06 l 2.03,-4.03 l 2.68,-4.04 l 2.04,-4.03 l 2.68,-4.69 l 2.69,-4.06 l 1.98,-4.7 l 2.74,-4.02 l 1.99,-4.74 l 5.36,-9.39 l 2.74,-4.73 l 1.99,-5.38 l 2.68,-4.69 l 2.68,-5.38 l 2.74,-4.73 l 10.73,-21.49 l 2.68,-5.41 l 3.38,-5.37 l 8.05,-16.12 l 2.68,-4.73 l 3.39,-5.37 l 2.68,-5.37 l 2.68,-4.7 l 3.37,-4.73 l 2.69,-4.7 l 3.38,-4.03 l 2.68,-4.73 l 3.38,-4.02 l 2.69,-4.02 l 3.33,-3.38 l 2.73,-3.35 l 3.33,-2.7 l 2.68,-2.7 l 3.39,-2.68 l 2.68,-2.02 l 3.37,-2.02 l 2.68,-1.33 l 3.39,-0.67 l 2.68,-0.68 l 3.33,-0.67 l 3.38,0.67 l 2.68,0.68 l 3.38,0.67 l 2.69,1.33 l 3.37,2.02 l 2.68,2.02 l 3.39,2.68 l 2.68,2.7 l 3.33,2.7 l 2.68,3.35 l 3.38,3.38 l 2.69,4.02 l 3.37,4.02 l 2.69,4.73 l 3.38,4.03 l 2.68,4.7 l 3.38,4.73 l 2.68,4.7 l 2.68,5.37 l 3.34,5.37 l 2.73,4.73 l 8.06,16.12 l 3.37,5.37 l 2.68,5.41 l 10.73,21.49 l 2.69,4.73 l 2.73,5.38 l 2.68,4.69 l 1.99,5.38 l 2.69,4.73 l 2.73,4.7 l 2.68,4.69 l 1.99,4.74 l 2.68,4.02 l 2.05,4.7 l 2.68,4.06 l 2.68,4.69 l 2.04,4.03 l 2.68,4.04 l 2.04,4.03 l 1.99,4.06 l 2.68,4.02 l 2.04,4.02 l 2.68,3.38 l 2.03,4.02 l 1.99,3.38 l 2.7,3.34 l 2.03,4.06 l 2.03,3.35 l 1.99,3.37 l 2.68,3.35 l 2.05,3.38 l 2.03,2.67 l 1.99,3.38 l 2.68,3.35 l 2.04,2.7 l 2.04,3.35 l 1.99,2.7 l 2.03,2.7 l 1.99,3.35 l 2.04,2.7 l 2.68,2.68 l 2.03,2.69 l 1.99,2.68 l 2.05,2.7 l 1.99,2.03 l 2.03,2.66 l 2.03,2.71 l 2.7,2.03 l 1.99,2.67 l 2.03,2.7 l 2.03,2.03 l 1.99,1.99 l 2.04,2.71 l 2.68,2.02 l 1.99,1.99 l 2.04,2.71 l 2.03,2.03 l 1.99,1.99 l 2.69,2.03 l 2.03,2.03 l 2.04,1.99 l 2.69,2.03 l 1.99,2.03 l 2.03,1.99 l 2.68,2.03 l 2.05,2.03 l 2.67,2.02 l 1.99,2 l 2.04,2.02 l 2.68,2.04 l 2.05,1.31 l 2.67,2.03 l 1.99,2.03 l 2.73,2.03 l 1.99,1.31 l 2.69,2.03 l 2.03,2.03 l 2.68,1.35 l 2.05,1.99 l 2.68,1.36 l 1.99,2.03 l 2.72,1.35 l 1.99,1.99 l 2.04,1.35 l 2.69,1.36 l 1.99,2.02 l 2.03,1.32 l 2.68,1.35 l 2.04,1.35 l 1.99,1.35 l 2.73,1.35 l 1.99,2 l 2.04,1.35 l 1.99,1.35 l 2.04,0.68 l 2.03,1.36 l 1.99,1.31 l 2.04,1.35 l 1.99,1.36 l 2.03,0.67 l 2.04,1.35 l 1.35,1.32 l 1.99,0.67 l 2.03,1.36 l 1.34,0.67 l 1.99,1.35 l 1.38,0.68 l 1.99,1.35 l 1.35,0.65 l 1.34,0.67 l 2.04,0.68 l 1.34,1.35 l 6.71,3.38 l 1.34,0.64 l 0.7,0.68 l 1.33,0.67 h 0.66 l 1.39,0.67 l 0.64,0.69 l 1.35,0.67 l 8.1,4.02"
               style="fill:none;fill-opacity:1;stroke:#7c7c00;stroke-width:5.73943186;stroke-linecap:round;stroke-linejoin:round;stroke-miterlimit:4;stroke-dasharray:none;stroke-opacity:1"
               id="path1225"
               inkscape:connector-curvature="0" />
          </g>
          <g
             id="g1227"
             transform="matrix(10,0,0,10,-18.749998,84.107136)"
             style="fill:#7c7c00;fill-opacity:1;stroke:none;stroke-width:0.5669291;stroke-miterlimit:4;stroke-dasharray:none;stroke-opacity:1">
            <text
               transform="matrix(1,0,0,-1,114.536,200.594)"
               style="font-variant:normal;font-weight:normal;font-size:7.41782999px;font-family:'Times New Roman';-inkscape-font-specification:TimesNewRomanPSMT;writing-mode:lr-tb;fill:#7c7c00;fill-opacity:1;fill-rule:nonzero;stroke:none;stroke-width:0.5669291;stroke-miterlimit:4;stroke-dasharray:none;stroke-opacity:1"
               id="text1231">
              <tspan
                 x="0 3.4343789 7.1432939 10.852209 14.561124 16.415581"
                 y="0"
                 sodipodi:role="line"
                 id="tspan1229">1100 K</tspan>
            </text>
          </g>
        </g>
      </g>
      <text
         xml:space="preserve"
         style="font-style:normal;font-variant:normal;font-weight:normal;font-stretch:normal;font-size:119.99999237px;line-height:125%;font-family:'Times New Roman';-inkscape-font-specification:'Times New Roman, ';text-align:start;letter-spacing:0px;word-spacing:0px;writing-mode:lr-tb;text-anchor:start;fill:#000000;fill-opacity:1;stroke:none;stroke-width:7.49999952px;stroke-linecap:butt;stroke-linejoin:miter;stroke-opacity:1"
         x="659.3761"
         y="-3274.5754"
         id="text1040"
         transform="scale(1,-1)"><tspan
           sodipodi:role="line"
           id="tspan1038"
           x="659.3761"
           y="-3168.061"
           style="stroke-width:7.49999952px" /></text>
      <text
         xml:space="preserve"
         style="font-style:normal;font-variant:normal;font-weight:normal;font-stretch:normal;font-size:119.99999237px;line-height:125%;font-family:'Times New Roman';-inkscape-font-specification:'Times New Roman, ';text-align:start;letter-spacing:0px;word-spacing:0px;writing-mode:lr-tb;text-anchor:start;fill:#000000;fill-opacity:1;stroke:none;stroke-width:7.49999952px;stroke-linecap:butt;stroke-linejoin:miter;stroke-opacity:1"
         x="1965.3533"
         y="1018.0656"
         id="text1044"
         transform="matrix(0,1,1,0,0,0)"><tspan
           sodipodi:role="line"
           id="tspan1042"
           x="1965.3533"
           y="1018.0656"
           style="font-size:99.99999237px;stroke-width:7.49999952px">Distribution of 𝜓</tspan></text>
      <text
         xml:space="preserve"
         style="font-style:normal;font-variant:normal;font-weight:normal;font-stretch:normal;font-size:119.99999237px;line-height:125%;font-family:'Times New Roman';-inkscape-font-specification:'Times New Roman, ';text-align:start;letter-spacing:0px;word-spacing:0px;writing-mode:lr-tb;text-anchor:start;fill:#000000;fill-opacity:1;stroke:none;stroke-width:7.49999952px;stroke-linecap:butt;stroke-linejoin:miter;stroke-opacity:1"
         x="-463.67184"
         y="-1775.493"
         id="text1082"
         transform="scale(1,-1)"><tspan
           sodipodi:role="line"
           id="tspan1080"
           x="-463.67184"
           y="-1668.9785"
           style="stroke-width:7.49999952px" /></text>
      <text
         xml:space="preserve"
         style="font-style:normal;font-variant:normal;font-weight:normal;font-stretch:normal;font-size:119.99999237px;line-height:125%;font-family:'Times New Roman';-inkscape-font-specification:'Times New Roman, ';text-align:start;letter-spacing:0px;word-spacing:0px;writing-mode:lr-tb;text-anchor:start;fill:#000000;fill-opacity:1;stroke:none;stroke-width:7.49999952px;stroke-linecap:butt;stroke-linejoin:miter;stroke-opacity:1"
         x="1096.41"
         y="-2956.8828"
         id="text1086"
         transform="scale(1,-1)"><tspan
           sodipodi:role="line"
           id="tspan1084"
           x="1096.41"
           y="-2956.8828"
           style="stroke-width:7.49999952px">a)</tspan></text>
      <text
         xml:space="preserve"
         style="font-style:normal;font-variant:normal;font-weight:normal;font-stretch:normal;font-size:119.99999237px;line-height:125%;font-family:'Times New Roman';-inkscape-font-specification:'Times New Roman, ';text-align:start;letter-spacing:0px;word-spacing:0px;writing-mode:lr-tb;text-anchor:start;fill:#000000;fill-opacity:1;stroke:none;stroke-width:7.49999952px;stroke-linecap:butt;stroke-linejoin:miter;stroke-opacity:1"
         x="2820.6179"
         y="-2956.8828"
         id="text1086-3"
         transform="scale(1,-1)"><tspan
           sodipodi:role="line"
           id="tspan1084-8"
           x="2820.6179"
           y="-2956.8828"
           style="stroke-width:7.49999952px">b)</tspan></text>
      <text
         xml:space="preserve"
         style="font-style:normal;font-variant:normal;font-weight:normal;font-stretch:normal;font-size:99.99999608px;line-height:125%;font-family:'Times New Roman';-inkscape-font-specification:'Times New Roman, ';text-align:start;letter-spacing:0px;word-spacing:0px;writing-mode:lr-tb;text-anchor:start;fill:#000000;fill-opacity:1;stroke:none;stroke-width:7.49999952px;stroke-linecap:butt;stroke-linejoin:miter;stroke-opacity:1;"
         x="2345.8572"
         y="-1483.5427"
         id="text932"
         transform="scale(1,-1)"><tspan
           sodipodi:role="line"
           id="tspan930"
           x="2345.8572"
           y="-1483.5427"
           style="font-size:99.99999608px;stroke-width:7.49999952px;">Libration angle (degree)</tspan></text>
    </g>
    <g
       inkscape:groupmode="layer"
       id="layer2"
       inkscape:label="Layer 2" />
  </g>
</svg>
