<?xml version="1.0" encoding="UTF-8" standalone="no"?>
<!-- Created with Inkscape (http://www.inkscape.org/) -->

<svg
   xmlns:dc="http://purl.org/dc/elements/1.1/"
   xmlns:cc="http://creativecommons.org/ns#"
   xmlns:rdf="http://www.w3.org/1999/02/22-rdf-syntax-ns#"
   xmlns:svg="http://www.w3.org/2000/svg"
   xmlns="http://www.w3.org/2000/svg"
   xmlns:sodipodi="http://sodipodi.sourceforge.net/DTD/sodipodi-0.dtd"
   xmlns:inkscape="http://www.inkscape.org/namespaces/inkscape"
   width="210mm"
   height="297mm"
   viewBox="0 0 210 297"
   version="1.1"
   id="svg8"
   inkscape:version="0.92.2 5c3e80d, 2017-08-06"
   sodipodi:docname="libr15_d.svg">
  <defs
     id="defs2">
    <clipPath
       id="clipPath875"
       clipPathUnits="userSpaceOnUse">
      <path
         inkscape:connector-curvature="0"
         id="path873"
         d="m 254.262,235.352 h 1560.35 v 1147.58 H 254.262 Z" />
    </clipPath>
    <clipPath
       id="clipPath961"
       clipPathUnits="userSpaceOnUse">
      <path
         inkscape:connector-curvature="0"
         id="path959"
         d="m 185.551,1713.79 h 1692.38 V 2770.12 H 185.551 Z" />
    </clipPath>
    <clipPath
       id="clipPath973"
       clipPathUnits="userSpaceOnUse">
      <path
         inkscape:connector-curvature="0"
         id="path971"
         d="m 254.801,1713.67 h 1560.35 V 2861.29 H 254.801 Z" />
    </clipPath>
    <clipPath
       id="clipPath1055"
       clipPathUnits="userSpaceOnUse">
      <path
         inkscape:connector-curvature="0"
         id="path1053"
         d="M 2250,239 V 1385 H 3807 V 239 Z" />
    </clipPath>
    <clipPath
       id="clipPath1123"
       clipPathUnits="userSpaceOnUse">
      <path
         inkscape:connector-curvature="0"
         id="path1121"
         d="M 2250.9,239.93 H 3806.92 V 1384.34 H 2250.9 Z" />
    </clipPath>
    <clipPath
       id="clipPath1177"
       clipPathUnits="userSpaceOnUse">
      <path
         inkscape:connector-curvature="0"
         id="path1175"
         d="m 2238.16,1713.63 h 1554.61 v 1143.4 H 2238.16 Z" />
    </clipPath>
    <clipPath
       id="clipPath1221"
       clipPathUnits="userSpaceOnUse">
      <path
         inkscape:connector-curvature="0"
         id="path1219"
         d="M 375,1715 V 3030 H 1696 V 1715 Z" />
    </clipPath>
  </defs>
  <sodipodi:namedview
     id="base"
     pagecolor="#ffffff"
     bordercolor="#666666"
     borderopacity="1.0"
     inkscape:pageopacity="0.0"
     inkscape:pageshadow="2"
     inkscape:zoom="2.3675964"
     inkscape:cx="267.61376"
     inkscape:cy="919.90772"
     inkscape:document-units="mm"
     inkscape:current-layer="g839"
     showgrid="false"
     inkscape:window-width="2560"
     inkscape:window-height="1395"
     inkscape:window-x="0"
     inkscape:window-y="1"
     inkscape:window-maximized="1"
     showguides="false" />
  <metadata
     id="metadata5">
    <rdf:RDF>
      <cc:Work
         rdf:about="">
        <dc:format>image/svg+xml</dc:format>
        <dc:type
           rdf:resource="http://purl.org/dc/dcmitype/StillImage" />
        <dc:title></dc:title>
      </cc:Work>
    </rdf:RDF>
  </metadata>
  <g
     inkscape:label="Layer 1"
     inkscape:groupmode="layer"
     id="layer1">
    <g
       transform="matrix(0.35277777,0,0,-0.35277777,0,297.0389)"
       inkscape:label="ink_ext_XXXXXX"
       id="g823">
      <g
         transform="scale(0.1)"
         id="g825" />
    </g>
    <g
       inkscape:groupmode="layer"
       id="layer3"
       inkscape:label="Layer 3">
      <path
         d="m 46.607513,50.853853 l 26.04749,-0.0949 V 10.440335 h -25.74809 z"
         style="opacity:0.90399996;fill:#80ffff;fill-opacity:1;fill-rule:evenodd;stroke:none;stroke-width:0.04614589;paint-order:markers stroke fill"
         id="path841-3"
         inkscape:connector-curvature="0" />
    </g>
    <g
       id="g839"
       transform="matrix(0.03527778,0,0,-0.03527778,6.7710974,121.04519)">
      <path
         d="M 308.59508,3136.1165 H 1868.2351"
         style="fill:none;stroke:#000000;stroke-width:4.69777012;stroke-linecap:round;stroke-linejoin:round;stroke-miterlimit:4;stroke-dasharray:none;stroke-opacity:1"
         id="path929"
         inkscape:connector-curvature="0" />
      <text
         id="text993"
         style="font-variant:normal;font-weight:normal;font-size:1px;font-family:Arial;-inkscape-font-specification:Arial;writing-mode:lr-tb;fill:#000000;fill-opacity:1;fill-rule:nonzero;stroke:none;stroke-width:10"
         x="63"
         y="2499">
        <tspan
           id="tspan991"
           y="2499"
           x="63"
           style="stroke-width:10" />
      </text>
      <text
         id="text1013"
         style="font-variant:normal;font-weight:normal;font-size:1px;font-family:Arial;-inkscape-font-specification:Arial;writing-mode:lr-tb;fill:#000000;fill-opacity:1;fill-rule:nonzero;stroke:none;stroke-width:10"
         x="2036"
         y="2498">
        <tspan
           id="tspan1011"
           y="2498"
           x="2036"
           style="stroke-width:10" />
      </text>
      <g
         id="g1023"
         transform="matrix(10,0,0,10,-1938.6749,1751.7765)">
        <text
           transform="matrix(1,0,0,-1,228.369,14.8906)"
           style="font-variant:normal;font-weight:normal;font-size:8.02581978px;font-family:'Times New Roman';-inkscape-font-specification:TimesNewRomanPSMT;writing-mode:lr-tb;fill:#000000;fill-opacity:1;fill-rule:nonzero;stroke:none"
           id="text1041">
          <tspan
             x="0 4.0129099 8.0258198 25.89916 29.912071 33.92498 51.870632 55.883545 59.896454 76.028435 80.041344 84.054253 88.067162 101.92759 105.94051 109.95341 113.96632 127.8912 131.90411 135.91702 139.92993"
             y="0"
             sodipodi:role="line"
             id="tspan1025">300600900120015001800</tspan>
          <tspan
             x="-10.641"
             y="-15.9953"
             id="tspan1027">5</tspan>
          <tspan
             x="-14.18827 -10.17536"
             y="-33.5965"
             sodipodi:role="line"
             id="tspan1029">10</tspan>
          <tspan
             x="-14.18827 -10.17536"
             y="-51.198101"
             sodipodi:role="line"
             id="tspan1031">15</tspan>
          <tspan
             x="-14.18827 -10.17536"
             y="-68.799301"
             sodipodi:role="line"
             id="tspan1033">20</tspan>
          <tspan
             x="-14.18827 -10.17536"
             y="-86.400902"
             sodipodi:role="line"
             id="tspan1035">25</tspan>
          <tspan
             x="-14.18827 -10.17536"
             y="-104.0021"
             sodipodi:role="line"
             id="tspan1037">30</tspan>
          <tspan
             x="-14.18827 -10.17536"
             y="-121.6037"
             sodipodi:role="line"
             id="tspan1039">35</tspan>
        </text>
      </g>
      <path
         d="m 312.22508,1980.9955 v 11.371 m 86.33,-22.738 v 22.738 m 86.32,-11.371 v 11.371 m 86.33,-11.371 v 11.371 m 86.37,-22.738 v 22.738 m 86.99,-11.371 v 11.371 m 86.33,-11.371 v 11.371 m 86.33,-22.738 v 22.738 m 86.33002,-11.371 v 11.371 m 86.32,-11.371 v 11.371 m 86.37,-22.738 v 22.738 m 86.33,-11.371 v 11.371 m 86.33,-11.371 v 11.371 m 86.33,-22.738 v 22.738 m 86.99,-11.371 v 11.371 m 86.33,-11.371 v 11.371 m 86.36,-22.738 v 22.738 m 86.33,-11.371 v 11.371 m 86.33,-11.371 v 11.371 m -1555.35002,0 H 1867.5751"
         style="fill:none;stroke:#000000;stroke-width:4.68478012;stroke-linecap:round;stroke-linejoin:round;stroke-miterlimit:4;stroke-dasharray:none;stroke-opacity:1"
         id="path1043"
         inkscape:connector-curvature="0" />
      <path
         d="m 300.85508,1992.3665 h 11.37 m -22.77,87.691 h 22.77 m -11.37,88.321 h 11.37 m -22.77,87.699 h 22.77 m -11.37,88.32 h 11.37 m -22.77,87.688 h 22.77 m -11.37,88.32 h 11.37 m -22.77,87.66 h 22.77 m -11.37,88.359 h 11.37 m -22.77,87.652 h 22.77 m -11.37,88.36 h 11.37 m -22.77,87.66 h 22.77 m -11.37,88.36 h 11.37 m -22.77,87.66 h 22.77 m 0,-1143.75 v 1143.75"
         style="fill:none;stroke:#000000;stroke-width:4.68478012;stroke-linecap:round;stroke-linejoin:round;stroke-miterlimit:4;stroke-dasharray:none;stroke-opacity:1"
         id="path1045"
         inkscape:connector-curvature="0" />
      <path
         d="m 1867.5751,1992.3665 v 0 m 0,87.691 v 0 m 0,88.321 v 0 m 0,87.699 v 0 m 0,88.32 v 0 m 0,87.688 v 0 m 0,88.32 v 0 m 0,87.66 v 0 m 0,88.359 v 0 m 0,87.652 v 0 m 0,88.36 v 0 m 0,87.66 v 0 m 0,88.36 v 0 m 0,87.66 v 0 m 0,-1143.75 v 1143.75"
         style="fill:none;stroke:#000000;stroke-width:4.68478012;stroke-linecap:round;stroke-linejoin:round;stroke-miterlimit:4;stroke-dasharray:none;stroke-opacity:1"
         id="path1047"
         inkscape:connector-curvature="0" />
      <g
         id="g1049"
         transform="translate(-1938.6749,1751.7765)">
        <g
           id="g1051"
           clip-path="url(#clipPath1055)">
          <path
             d="m 2509.88,409.922 l -172.65,-75.621 m 346.01,143.859 l -173.36,-68.238 m 346.02,125.16 L 2683.24,478.16 m 345.31,122.5 L 2855.9,535.082 m 345.35,139.18 l -172.7,-73.602 m 345.36,133.828 l -172.66,-60.226 m 345.98,181.359 L 3373.91,734.488 M 3719.92,1021.6 L 3547.23,855.621"
             style="fill:none;stroke:#000000;stroke-width:2.00776005;stroke-linecap:round;stroke-linejoin:round;stroke-miterlimit:4;stroke-dasharray:none;stroke-opacity:1"
             id="path1057"
             inkscape:connector-curvature="0" />
          <path
             d="m 2325.2,322.23 h 24.1016 v 24.1016 H 2325.2 Z"
             style="fill:#000000;fill-opacity:1;fill-rule:evenodd;stroke:none"
             id="path1059"
             inkscape:connector-curvature="0" />
          <path
             d="m 2325.2,322.23 h 24.1016 v 24.1016 H 2325.2 Z"
             style="fill:none;stroke:#000000;stroke-width:2.00776005;stroke-linecap:round;stroke-linejoin:round;stroke-miterlimit:4;stroke-dasharray:none;stroke-opacity:1"
             id="path1061"
             inkscape:connector-curvature="0" />
          <path
             d="m 2497.85,397.852 h 24.0977 v 24.0977 H 2497.85 Z"
             style="fill:#000000;fill-opacity:1;fill-rule:evenodd;stroke:none"
             id="path1063"
             inkscape:connector-curvature="0" />
          <path
             d="m 2497.85,397.852 h 24.0977 v 24.0977 H 2497.85 Z"
             style="fill:none;stroke:#000000;stroke-width:2.00776005;stroke-linecap:round;stroke-linejoin:round;stroke-miterlimit:4;stroke-dasharray:none;stroke-opacity:1"
             id="path1065"
             inkscape:connector-curvature="0" />
          <path
             d="m 2671.17,466.129 h 24.0977 v 24.1016 H 2671.17 Z"
             style="fill:#000000;fill-opacity:1;fill-rule:evenodd;stroke:none"
             id="path1067"
             inkscape:connector-curvature="0" />
          <path
             d="m 2671.17,466.129 h 24.0977 v 24.1016 H 2671.17 Z"
             style="fill:none;stroke:#000000;stroke-width:2.00776005;stroke-linecap:round;stroke-linejoin:round;stroke-miterlimit:4;stroke-dasharray:none;stroke-opacity:1"
             id="path1069"
             inkscape:connector-curvature="0" />
          <path
             d="m 2843.87,523.012 h 24.0977 v 24.0977 H 2843.87 Z"
             style="fill:#000000;fill-opacity:1;fill-rule:evenodd;stroke:none"
             id="path1071"
             inkscape:connector-curvature="0" />
          <path
             d="m 2843.87,523.012 h 24.0977 v 24.0977 H 2843.87 Z"
             style="fill:none;stroke:#000000;stroke-width:2.00776005;stroke-linecap:round;stroke-linejoin:round;stroke-miterlimit:4;stroke-dasharray:none;stroke-opacity:1"
             id="path1073"
             inkscape:connector-curvature="0" />
          <path
             d="m 3016.52,588.602 h 24.1016 v 24.0977 H 3016.52 Z"
             style="fill:#000000;fill-opacity:1;fill-rule:evenodd;stroke:none"
             id="path1075"
             inkscape:connector-curvature="0" />
          <path
             d="m 3016.52,588.602 h 24.1016 v 24.0977 H 3016.52 Z"
             style="fill:none;stroke:#000000;stroke-width:2.00776005;stroke-linecap:round;stroke-linejoin:round;stroke-miterlimit:4;stroke-dasharray:none;stroke-opacity:1"
             id="path1077"
             inkscape:connector-curvature="0" />
          <path
             d="m 3189.18,662.23 h 24.1016 v 24.1016 H 3189.18 Z"
             style="fill:#000000;fill-opacity:1;fill-rule:evenodd;stroke:none"
             id="path1079"
             inkscape:connector-curvature="0" />
          <path
             d="m 3189.18,662.23 h 24.1016 v 24.1016 H 3189.18 Z"
             style="fill:none;stroke:#000000;stroke-width:2.00776005;stroke-linecap:round;stroke-linejoin:round;stroke-miterlimit:4;stroke-dasharray:none;stroke-opacity:1"
             id="path1081"
             inkscape:connector-curvature="0" />
          <path
             d="m 3361.88,722.461 h 24.0625 v 24.0977 H 3361.88 Z"
             style="fill:#000000;fill-opacity:1;fill-rule:evenodd;stroke:none"
             id="path1083"
             inkscape:connector-curvature="0" />
          <path
             d="m 3361.88,722.461 h 24.0625 v 24.0977 H 3361.88 Z"
             style="fill:none;stroke:#000000;stroke-width:2.00776005;stroke-linecap:round;stroke-linejoin:round;stroke-miterlimit:4;stroke-dasharray:none;stroke-opacity:1"
             id="path1085"
             inkscape:connector-curvature="0" />
          <path
             d="m 3535.2,843.602 h 24.1016 v 24.0977 H 3535.2 Z"
             style="fill:#000000;fill-opacity:1;fill-rule:evenodd;stroke:none"
             id="path1087"
             inkscape:connector-curvature="0" />
          <path
             d="m 3535.2,843.602 h 24.1016 v 24.0977 H 3535.2 Z"
             style="fill:none;stroke:#000000;stroke-width:2.00776005;stroke-linecap:round;stroke-linejoin:round;stroke-miterlimit:4;stroke-dasharray:none;stroke-opacity:1"
             id="path1089"
             inkscape:connector-curvature="0" />
          <path
             d="m 3707.85,1009.57 h 24.0977 v 24.1016 H 3707.85 Z"
             style="fill:#000000;fill-opacity:1;fill-rule:evenodd;stroke:none"
             id="path1091"
             inkscape:connector-curvature="0" />
          <path
             d="m 3707.85,1009.57 h 24.0977 v 24.1016 H 3707.85 Z"
             style="fill:none;stroke:#000000;stroke-width:2.00776005;stroke-linecap:round;stroke-linejoin:round;stroke-miterlimit:4;stroke-dasharray:none;stroke-opacity:1"
             id="path1093"
             inkscape:connector-curvature="0" />
          <path
             d="M 3028.55,707.07 L 2337.23,365.082 m 864.02,479.84 L 3028.55,707.07 m 345.36,301.17 L 3201.25,844.922 m 345.98,457.778 l -173.32,-294.46"
             style="fill:none;stroke:#ff0000;stroke-width:2.00776005;stroke-linecap:round;stroke-linejoin:round;stroke-miterlimit:4;stroke-dasharray:none;stroke-opacity:1"
             id="path1095"
             inkscape:connector-curvature="0" />
          <path
             d="m 2351.29,365.082 c 0,-7.781 -6.29,-14.062 -14.06,-14.062 c -7.78,0 -14.07,6.281 -14.07,14.062 c 0,7.77 6.29,14.059 14.07,14.059 c 7.77,0 14.06,-6.289 14.06,-14.059 z"
             style="fill:#ff0000;fill-opacity:1;fill-rule:evenodd;stroke:none"
             id="path1097"
             inkscape:connector-curvature="0" />
          <path
             d="m 2351.29,365.082 c 0,-7.781 -6.29,-14.062 -14.06,-14.062 c -7.78,0 -14.07,6.281 -14.07,14.062 c 0,7.77 6.29,14.059 14.07,14.059 c 7.77,0 14.06,-6.289 14.06,-14.059 z"
             style="fill:none;stroke:#ff0000;stroke-width:2.00776005;stroke-linecap:round;stroke-linejoin:round;stroke-miterlimit:4;stroke-dasharray:none;stroke-opacity:1"
             id="path1099"
             inkscape:connector-curvature="0" />
          <path
             d="m 3042.62,707.07 c 0,-7.769 -6.29,-14.058 -14.07,-14.058 c -7.73,0 -14.02,6.289 -14.02,14.058 c 0,7.77 6.29,14.059 14.02,14.059 c 7.78,0 14.07,-6.289 14.07,-14.059 z"
             style="fill:#ff0000;fill-opacity:1;fill-rule:evenodd;stroke:none"
             id="path1101"
             inkscape:connector-curvature="0" />
          <path
             d="m 3042.62,707.07 c 0,-7.769 -6.29,-14.058 -14.07,-14.058 c -7.73,0 -14.02,6.289 -14.02,14.058 c 0,7.77 6.29,14.059 14.02,14.059 c 7.78,0 14.07,-6.289 14.07,-14.059 z"
             style="fill:none;stroke:#ff0000;stroke-width:2.00776005;stroke-linecap:round;stroke-linejoin:round;stroke-miterlimit:4;stroke-dasharray:none;stroke-opacity:1"
             id="path1103"
             inkscape:connector-curvature="0" />
          <path
             d="m 3215.31,844.922 c 0,-7.731 -6.33,-14.063 -14.06,-14.063 c -7.77,0 -14.06,6.332 -14.06,14.063 c 0,7.777 6.29,14.058 14.06,14.058 c 7.73,0 14.06,-6.281 14.06,-14.058 z"
             style="fill:#ff0000;fill-opacity:1;fill-rule:evenodd;stroke:none"
             id="path1105"
             inkscape:connector-curvature="0" />
          <path
             d="m 3215.31,844.922 c 0,-7.731 -6.33,-14.063 -14.06,-14.063 c -7.77,0 -14.06,6.332 -14.06,14.063 c 0,7.777 6.29,14.058 14.06,14.058 c 7.73,0 14.06,-6.281 14.06,-14.058 z"
             style="fill:none;stroke:#ff0000;stroke-width:2.00776005;stroke-linecap:round;stroke-linejoin:round;stroke-miterlimit:4;stroke-dasharray:none;stroke-opacity:1"
             id="path1107"
             inkscape:connector-curvature="0" />
          <path
             d="m 3387.97,1008.24 c 0,-7.77 -6.29,-14.06 -14.06,-14.06 c -7.78,0 -14.07,6.29 -14.07,14.06 c 0,7.74 6.29,14.03 14.07,14.03 c 7.77,0 14.06,-6.29 14.06,-14.03 z"
             style="fill:#ff0000;fill-opacity:1;fill-rule:evenodd;stroke:none"
             id="path1109"
             inkscape:connector-curvature="0" />
          <path
             d="m 3387.97,1008.24 c 0,-7.77 -6.29,-14.06 -14.06,-14.06 c -7.78,0 -14.07,6.29 -14.07,14.06 c 0,7.74 6.29,14.03 14.07,14.03 c 7.77,0 14.06,-6.29 14.06,-14.03 z"
             style="fill:none;stroke:#ff0000;stroke-width:2.00776005;stroke-linecap:round;stroke-linejoin:round;stroke-miterlimit:4;stroke-dasharray:none;stroke-opacity:1"
             id="path1111"
             inkscape:connector-curvature="0" />
          <path
             d="m 3561.29,1302.7 c 0,-7.78 -6.29,-14.07 -14.06,-14.07 c -7.74,0 -14.03,6.29 -14.03,14.07 c 0,7.77 6.29,14.06 14.03,14.06 c 7.77,0 14.06,-6.29 14.06,-14.06 z"
             style="fill:#ff0000;fill-opacity:1;fill-rule:evenodd;stroke:none"
             id="path1113"
             inkscape:connector-curvature="0" />
          <path
             d="m 3561.29,1302.7 c 0,-7.78 -6.29,-14.07 -14.06,-14.07 c -7.74,0 -14.03,6.29 -14.03,14.07 c 0,7.77 6.29,14.06 14.03,14.06 c 7.77,0 14.06,-6.29 14.06,-14.06 z"
             style="fill:none;stroke:#ff0000;stroke-width:2.00776005;stroke-linecap:round;stroke-linejoin:round;stroke-miterlimit:4;stroke-dasharray:none;stroke-opacity:1"
             id="path1115"
             inkscape:connector-curvature="0" />
        </g>
      </g>
      <g
         id="g1117"
         transform="translate(-1878.1392,1794.0979)">
        <g
           id="g1119"
           clip-path="url(#clipPath1123)">
          <g
             id="g1125"
             transform="scale(10)">
            <text
               transform="matrix(1,0,0,-1,341.607,101.425)"
               style="font-variant:normal;font-weight:normal;font-size:8.02581978px;font-family:'Times New Roman';-inkscape-font-specification:TimesNewRomanPSMT;writing-mode:lr-tb;fill:#000000;fill-opacity:1;fill-rule:nonzero;stroke:none"
               id="text1129">
              <tspan
                 x="0 5.794642 8.4672403 12.030704 16.043613 20.056524 24.069435 26.300611 28.53179"
                 y="0"
                 sodipodi:role="line"
                 id="tspan1127">Aragonite</tspan>
            </text>
          </g>
        </g>
      </g>
      <g
         id="g1131"
         transform="matrix(10,0,0,10,-1938.6749,1751.7765)">
        <text
           transform="matrix(0,1,1,0,209.229,33.7637)"
           style="font-variant:normal;font-weight:normal;font-size:8.62710953px;font-family:'Times New Roman';-inkscape-font-specification:TimesNewRomanPSMT;writing-mode:lr-tb;fill:#000000;fill-opacity:1;fill-rule:nonzero;stroke:none"
           id="text1135">
          <tspan
             x="0 4.7966733 7.1950097 11.025447 15.339002 19.652557 23.482994 26.355822 28.754158 30.910934 35.224491 39.054928 43.368481 45.766819 49.597256 51.99559 54.36816 58.681713 62.99527 65.152046 68.024872 72.338432 76.168869 80.482422 83.355247 87.185684 91.016121"
             y="0"
             sodipodi:role="line"
             id="tspan1133">Standart deviation (degree)</tspan>
        </text>
        <text
           transform="matrix(1,0,0,-1,277.359,2.71016)"
           style="font-variant:normal;font-weight:normal;font-size:8.62710953px;font-family:'Times New Roman';-inkscape-font-specification:TimesNewRomanPSMT;writing-mode:lr-tb;fill:#000000;fill-opacity:1;fill-rule:nonzero;stroke:none"
           id="text1139">
          <tspan
             x="0 4.6674047 8.4978418 15.209733 19.523289 23.353725 26.226553 30.05699 32.455326 36.768883 39.641708 43.472145 45.628922 48.501751 54.730522"
             y="0"
             sodipodi:role="line"
             id="tspan1137">Temperature (K)</tspan>
        </text>
      </g>
      <g
         id="g1141"
         transform="matrix(10,0,0,10,-1938.6749,1794.6337)">
        <text
           transform="matrix(1,0,0,-1,327.352,124.715)"
           style="font-variant:normal;font-weight:normal;font-size:8.02581978px;font-family:'Times New Roman';-inkscape-font-specification:TimesNewRomanPSMT;writing-mode:lr-tb;fill:#ff0000;fill-opacity:1;fill-rule:nonzero;stroke:none"
           id="text1145">
          <tspan
             x="0 5.3532219 8.9166861 11.147864 14.711329 16.942507 19.173683"
             y="0"
             sodipodi:role="line"
             id="tspan1143">Calcite</tspan>
        </text>
      </g>
      <text
         xml:space="preserve"
         style="font-style:normal;font-variant:normal;font-weight:normal;font-stretch:normal;font-size:119.99999237px;line-height:125%;font-family:'Times New Roman';-inkscape-font-specification:'Times New Roman, ';text-align:start;letter-spacing:0px;word-spacing:0px;writing-mode:lr-tb;text-anchor:start;fill:#000000;fill-opacity:1;stroke:none;stroke-width:7.49999952px;stroke-linecap:butt;stroke-linejoin:miter;stroke-opacity:1"
         x="659.3761"
         y="-3274.5754"
         id="text1040"
         transform="scale(1,-1)"><tspan
           sodipodi:role="line"
           id="tspan1038"
           x="659.3761"
           y="-3168.061"
           style="stroke-width:7.49999952px" /></text>
      <text
         xml:space="preserve"
         style="font-style:normal;font-variant:normal;font-weight:normal;font-stretch:normal;font-size:119.99999237px;line-height:125%;font-family:'Times New Roman';-inkscape-font-specification:'Times New Roman, ';text-align:start;letter-spacing:0px;word-spacing:0px;writing-mode:lr-tb;text-anchor:start;fill:#000000;fill-opacity:1;stroke:none;stroke-width:7.49999952px;stroke-linecap:butt;stroke-linejoin:miter;stroke-opacity:1"
         x="-463.67184"
         y="-1775.493"
         id="text1082"
         transform="scale(1,-1)"><tspan
           sodipodi:role="line"
           id="tspan1080"
           x="-463.67184"
           y="-1668.9785"
           style="stroke-width:7.49999952px" /></text>
    </g>
    <g
       inkscape:groupmode="layer"
       id="layer2"
       inkscape:label="Layer 2" />
  </g>
</svg>
